<svg width="75" height="75" viewBox="0 0 75 75" fill="none" xmlns="http://www.w3.org/2000/svg">
<path d="M37.4989 75C34.0451 75 30.5912 74.1101 27.5095 72.3326L9.98939 62.2168C3.82811 58.6596 0 52.027 0 44.9126V24.6765C0 17.5598 3.82811 10.9295 9.98939 7.37224C18.3404 2.54857 27.8524 0 37.4989 0C47.1454 0 56.6574 2.54857 65.0106 7.37224C71.1719 10.9295 75 17.5598 75 24.6765V44.9103C75 52.027 71.1719 58.6573 65.0106 62.2146L47.4905 72.3304C44.4087 74.1101 40.9549 74.9978 37.5011 74.9978L37.4989 75ZM37.4989 0.896593C28.0115 0.896593 18.6542 3.40481 10.4354 8.14779C4.5498 11.5459 0.894271 17.8803 0.894271 24.6765V44.9103C0.894271 51.7065 4.5498 58.0409 10.4354 61.439L27.9555 71.5548C33.8411 74.9529 41.1522 74.9529 47.0378 71.5548L64.5579 61.439C70.4435 58.0409 74.099 51.7065 74.099 44.9103V24.6765C74.099 17.8803 70.4435 11.5459 64.5579 8.14779C56.3413 3.40257 46.984 0.896593 37.4944 0.896593H37.4989Z" fill="#391F1E"/>
<path d="M29.7369 37.3564L18.5689 23.4942C18.5689 23.4942 25.3401 29.7802 28.3321 32.9677C28.6738 33.3308 28.9877 33.6255 29.2788 33.8667L29.8028 34.3925C30.5419 35.1316 31.5367 34.9309 32.2733 34.1918C33.0099 33.4528 33.2099 32.4521 32.4733 31.713L31.9468 31.1847C31.7088 30.8926 31.4152 30.5802 31.0532 30.2374C27.879 27.2353 21.614 20.4414 21.614 20.4414L35.4298 31.6444C35.4298 31.6444 36.7436 32.4622 34.8122 34.1131C33.868 34.9182 33.6858 35.3855 33.5516 35.4693C33.4681 35.604 33.0023 35.7894 32.1999 36.7367C30.5546 38.6746 29.7395 37.3564 29.7395 37.3564H29.7369Z" fill="#391F1E"/>
<path d="M32.8378 33.6331L48.7732 49.6221L47.6509 50.7481L31.7155 34.7592L32.8378 33.6331Z" fill="#391F1E"/>
<path d="M42.8148 44.7703C43.6425 43.9399 44.9841 43.9399 45.8118 44.7703L52.2059 51.1852C53.0336 52.0157 53.0336 53.3616 52.2059 54.1921C51.3781 55.0225 50.0365 55.0225 49.2088 54.1921L42.8148 47.7771C41.987 46.9467 41.987 45.6007 42.8148 44.7703ZM51.6642 53.6486C51.973 53.3362 51.973 52.8334 51.6642 52.5236C51.3553 52.2112 50.8516 52.2112 50.5403 52.5236C50.2315 52.8334 50.2315 53.3388 50.5403 53.6486C50.8516 53.9584 51.3528 53.9584 51.6642 53.6486Z" fill="#391F1E"/>
<path d="M43.2357 33.0949L44.3184 34.1816L27.5441 51.0063L26.4614 49.9196L43.2357 33.0949Z" fill="#391F1E"/>
<path d="M42.5293 27.2431C42.5622 27.1897 42.6027 27.1389 42.6559 27.0856L49.2094 20.5101C49.8169 19.9005 50.913 20.0123 51.6572 20.7615L56.6109 25.7294C57.3551 26.4761 57.4665 27.5783 56.8615 28.1853L50.308 34.7609C50.2548 34.8142 50.2017 34.8548 50.151 34.8878L50.1662 34.9031C50.1662 34.9031 50.1435 34.9082 50.103 34.9158C49.9941 34.9742 49.8903 34.992 49.7865 34.9767C48.5918 35.1952 44.8885 35.7133 43.2963 34.1157C41.7041 32.5182 42.2205 28.805 42.4382 27.6037C42.423 27.4996 42.4407 27.3929 42.5015 27.2863C42.5091 27.2456 42.5141 27.2228 42.5141 27.2228L42.5293 27.238V27.2431ZM48.3564 32.4674C48.1336 32.6909 48.1336 33.0541 48.3564 33.2802C48.5791 33.5037 48.9411 33.5037 49.1664 33.2802L54.6669 27.7587C54.8896 27.5351 54.8896 27.172 54.6669 26.9459C54.4441 26.7224 54.0821 26.7224 53.8569 26.9459L48.3564 32.4649V32.4674ZM46.2453 30.3492C46.0225 30.5727 46.0225 30.9359 46.2453 31.162C46.468 31.3855 46.83 31.3855 47.0527 31.162L52.5558 25.6405C52.7785 25.417 52.7785 25.0538 52.5558 24.8277C52.333 24.6042 51.971 24.6042 51.7483 24.8277L46.2478 30.3467L46.2453 30.3492ZM44.1342 28.2311C43.9114 28.4546 43.9114 28.8177 44.1342 29.0438C44.3569 29.2673 44.7189 29.2673 44.9442 29.0438L50.4421 23.5223C50.6649 23.2988 50.6649 22.9356 50.4421 22.7095C50.2194 22.486 49.8549 22.486 49.6321 22.7095L44.1316 28.2285L44.1342 28.2311Z" fill="#391F1E"/>
<path d="M32.2103 45.2425C33.0077 46.045 33.0077 47.3427 32.2103 48.1427L26.0416 54.3316C25.2417 55.1316 23.9482 55.1341 23.1508 54.3316C22.3535 53.5316 22.3535 52.2314 23.1508 51.4314L29.3196 45.2425C30.1195 44.44 31.413 44.44 32.2103 45.2425ZM23.6723 53.8084C23.971 54.1081 24.457 54.1081 24.7557 53.8084C25.0544 53.5088 25.0544 53.0212 24.7557 52.7215C24.457 52.4218 23.971 52.4218 23.6723 52.7215C23.3736 53.0212 23.3736 53.5088 23.6723 53.8084Z" fill="#391F1E"/>
</svg>
