<svg width="196" height="183" viewBox="0 0 196 183" fill="none" xmlns="http://www.w3.org/2000/svg">
<path d="M47.4364 181.615C32.4336 181.615 20.8282 177.41 12.6204 169C4.47979 160.59 0.409509 148.481 0.409509 132.67V52.5429C0.409509 35.8581 4.27796 23.0754 12.0149 14.1948C19.819 5.24688 31.6262 0.772936 47.4364 0.772936C63.3139 0.772936 75.1211 5.24688 82.858 14.1948C90.5949 23.0754 94.4634 35.8581 94.4634 52.5429V132.67C94.4634 148.481 90.3931 160.59 82.2525 169C74.1119 177.41 62.5066 181.615 47.4364 181.615ZM47.4364 148.918C50.1948 148.918 52.3477 147.673 53.8951 145.184C55.4424 142.695 56.2161 139.903 56.2161 136.808V49.1118C56.2161 44.9406 55.7452 41.3076 54.8033 38.2128C53.9287 35.0508 51.4731 33.4698 47.4364 33.4698C43.3998 33.4698 40.9105 35.0508 39.9686 38.2128C39.094 41.3076 38.6567 44.9406 38.6567 49.1118V136.808C38.6567 139.903 39.4304 142.695 40.9778 145.184C42.5925 147.673 44.7453 148.918 47.4364 148.918ZM147.343 182.018C131.668 182.018 120.264 177.881 113.133 169.606C106.001 161.331 102.436 148.851 102.436 132.166V113.597H138.866V132.267C138.866 136.976 139.438 140.979 140.582 144.276C141.793 147.505 144.45 149.12 148.554 149.12C152.726 149.12 155.383 147.37 156.527 143.872C157.67 140.306 158.242 134.52 158.242 126.514V122.074C158.242 115.952 157.2 110.603 155.114 106.028C153.096 101.454 149.093 99.1662 143.105 99.1662C142.365 99.1662 141.692 99.1998 141.087 99.2671C140.548 99.2671 140.077 99.3007 139.674 99.368V67.4785C145.796 67.4785 150.472 66.133 153.701 63.4419C156.93 60.6835 158.545 56.1086 158.545 49.7173C158.545 39.6929 155.652 34.6808 149.866 34.6808C146.099 34.6808 143.542 36.1609 142.197 39.1211C140.918 42.014 140.279 45.7143 140.279 50.2218V55.5704H103.546C103.479 54.7631 103.411 53.7875 103.344 52.6438C103.344 51.5001 103.344 50.39 103.344 49.3136C103.344 33.0325 107.145 21.0907 114.747 13.4884C122.35 5.88602 133.989 2.08485 149.664 2.08485C179.939 2.08485 195.077 17.8278 195.077 49.3136C195.077 58.0597 193.899 65.292 191.545 71.0106C189.19 76.6619 184.817 80.6312 178.426 82.9187C183.471 85.3407 187.205 88.4354 189.627 92.203C192.049 95.9705 193.63 100.646 194.37 106.23C195.11 111.814 195.48 118.576 195.48 126.514C195.48 144.276 191.747 157.967 184.279 167.587C176.878 177.208 164.566 182.018 147.343 182.018Z" fill="white"/>
</svg>
