<svg width="102" height="101" viewBox="0 0 102 101" fill="none" xmlns="http://www.w3.org/2000/svg">
<g clip-path="url(#clip0_69_930)">
<path d="M101.5 60.0716V33.9206C101.5 23.9696 96.1927 14.7746 87.5743 9.80047C64.9431 -3.26487 37.0598 -3.26487 14.4286 9.80047C5.80725 14.7746 0.5 23.9696 0.5 33.9206V60.0716C0.5 70.0227 5.80725 79.2177 14.4257 84.1918L37.0714 97.2658C45.6898 102.24 56.3073 102.24 64.9228 97.2658L87.5685 84.1918C96.187 79.2177 101.494 70.0227 101.494 60.0716H101.5Z" fill="#EC4E20"/>
<path d="M51 98.9605C46.5358 98.9605 42.0715 97.8104 38.0882 95.5131L15.4426 82.4391C7.47879 77.8416 2.53076 69.2694 2.53076 60.0744V33.9206C2.53076 24.7227 7.47879 16.1535 15.4426 11.556C26.2367 5.32169 38.5314 2.02783 51 2.02783C63.4686 2.02783 75.7633 5.32169 86.5603 11.556C94.5241 16.1535 99.4721 24.7227 99.4721 33.9206V60.0715C99.4721 69.2694 94.5241 77.8387 86.5603 82.4362L63.9147 95.5102C59.9313 97.8104 55.4671 98.9576 51.0029 98.9576L51 98.9605ZM51 3.18662C38.7371 3.18662 26.6423 6.42833 16.0191 12.5583C8.41161 16.9501 3.68665 25.137 3.68665 33.9206V60.0715C3.68665 68.8552 8.41161 77.042 16.0191 81.4338L38.6647 94.5078C46.2721 98.8997 55.722 98.8997 63.3295 94.5078L85.9751 81.4338C93.5826 77.042 98.3075 68.8552 98.3075 60.0715V33.9206C98.3075 25.137 93.5826 16.9501 85.9751 12.5583C75.3548 6.42543 63.26 3.18662 50.9942 3.18662H51Z" fill="white"/>
<path d="M11.0392 27.8312C11.9303 27.8312 12.6528 27.1088 12.6528 26.2176C12.6528 25.3264 11.9303 24.604 11.0392 24.604C10.148 24.604 9.42554 25.3264 9.42554 26.2176C9.42554 27.1088 10.148 27.8312 11.0392 27.8312Z" fill="white"/>
<path d="M92.5744 26.2176C92.5744 27.1099 91.8502 27.8312 90.9608 27.8312C90.0714 27.8312 89.3472 27.107 89.3472 26.2176C89.3472 25.3282 90.0714 24.604 90.9608 24.604C91.8502 24.604 92.5744 25.3282 92.5744 26.2176Z" fill="white"/>
<path d="M28.5397 14.9598L28.673 15.374C29.0554 16.5647 28.9308 17.428 28.2413 18.0682L28.2529 18.1001C29.3509 18.1667 30.0085 18.9054 30.4025 20.1309L30.7038 21.0753C31.2774 22.8627 30.6429 24.1258 28.8207 24.7081L25.9585 25.6264L22.2417 14.0414L24.988 13.1608C26.874 12.5553 27.9661 13.1723 28.5397 14.9598ZM24.5911 15.1133L25.5732 18.1754L26.2859 17.9466C26.9638 17.7293 27.2824 17.2976 26.984 16.3706L26.7784 15.7246C26.5118 14.896 26.1149 14.6237 25.4689 14.8294L24.5911 15.1104V15.1133ZM26.1034 19.8296L27.2448 23.3871L28.2877 23.0539C28.8989 22.8569 29.1394 22.4687 28.8642 21.6083L28.5397 20.6002C28.195 19.5254 27.7401 19.3052 26.9145 19.5689L26.1034 19.8296Z" fill="white"/>
<path d="M35.0925 15.8174L37.6679 15.3162L38.0011 17.0225L35.4256 17.5237L36.1064 21.0203L39.3481 20.3888L39.6784 22.0951L34.5595 23.0916L32.2361 11.1474L37.355 10.1509L37.6882 11.8572L34.4465 12.4887L35.0954 15.8174H35.0925Z" fill="white"/>
<path d="M45.1047 14.7047L47.7728 14.5019L48.0654 18.3491C48.2131 20.2901 47.3266 21.472 45.4552 21.6169C43.5838 21.7588 42.5293 20.7246 42.3815 18.7836L41.9006 12.474C41.7529 10.5331 42.6393 9.3511 44.5108 9.20625C46.3822 9.0614 47.4367 10.0985 47.5845 12.0395L47.6743 13.2186L45.8724 13.3547L45.7739 12.054C45.7072 11.1878 45.3017 10.8865 44.6962 10.9328C44.0907 10.9792 43.7344 11.3384 43.7981 12.2046L44.2964 18.7576C44.363 19.6238 44.7657 19.9077 45.3741 19.8613C45.9795 19.815 46.3388 19.4731 46.2721 18.6069L46.1012 16.3705L45.235 16.4371L45.1018 14.7047H45.1047Z" fill="white"/>
<path d="M55.4237 21.391C55.3339 21.0753 55.273 20.8812 55.3165 19.8904L55.4005 17.9813C55.4497 16.8515 55.0876 16.4198 54.2185 16.3822L53.558 16.3532L53.3407 21.3012L51.4316 21.2172L51.9676 9.06152L54.8501 9.18899C56.8287 9.2759 57.6398 10.2348 57.5558 12.1091L57.5153 13.0651C57.4602 14.3166 57.0257 15.0959 56.1566 15.458V15.4928C57.0923 15.9331 57.3646 16.8515 57.3096 18.1175L57.2256 19.9918C57.1995 20.5828 57.1966 21.0173 57.3704 21.4779L55.4266 21.391H55.4237ZM53.7985 10.8808L53.6333 14.615L54.3808 14.6469C55.0934 14.6788 55.5395 14.3862 55.583 13.4128L55.6351 12.2134C55.6728 11.3443 55.3947 10.9503 54.7168 10.9214L53.7956 10.8808H53.7985Z" fill="white"/>
<path d="M62.0691 9.81494L63.9637 10.0844L62.2516 22.13L60.3599 21.8605L62.072 9.81494H62.0691Z" fill="white"/>
<path d="M68.3818 10.8574L70.2417 11.2949L67.8487 21.4459L70.9109 22.1672L70.5111 23.859L65.5891 22.7002L68.3789 10.8574H68.3818Z" fill="white"/>
<path d="M77.2146 13.1953L79.0165 13.8297L75.5517 23.6679L78.5182 24.7137L77.9417 26.3534L73.1704 24.6731L77.2117 13.1953H77.2146Z" fill="white"/>
<path d="M43.1896 26.5017C43.9283 26.3394 44.3831 26.6581 44.5048 27.3244L44.528 27.4548C44.2962 27.4982 44.0644 27.5446 43.8356 27.5909C43.824 27.533 43.8124 27.4751 43.8008 27.4171C43.74 27.1187 43.5806 27.0347 43.3431 27.0869C43.1055 27.139 42.9984 27.2839 43.065 27.5793C43.1345 27.8835 43.3373 28.0689 43.8848 28.3441C44.5859 28.7005 44.8292 29.0191 44.919 29.4971C45.0407 30.1692 44.7742 30.6096 44.1253 30.7515C43.4792 30.8964 43.0476 30.6096 42.8738 29.9491C42.8535 29.8651 42.8303 29.781 42.8101 29.697C43.0273 29.642 43.2446 29.5869 43.4619 29.5377C43.485 29.6362 43.5082 29.7347 43.5314 29.8332C43.6009 30.1287 43.7603 30.204 43.9746 30.1547C44.189 30.1084 44.302 29.9722 44.2412 29.6739C44.1774 29.3726 43.9949 29.1698 43.4474 28.9004C42.7463 28.5585 42.4653 28.2717 42.3436 27.7966C42.1727 27.139 42.4508 26.6581 43.1896 26.493V26.5017Z" fill="white"/>
<path d="M45.6492 26.0986C46.4371 25.9827 47.2251 25.8929 48.0189 25.832C48.0334 26.0348 48.0508 26.2376 48.0652 26.4375C47.8016 26.4578 47.538 26.481 47.2773 26.507C47.3989 27.718 47.5206 28.9289 47.6452 30.1369C47.4221 30.1601 47.1962 30.1833 46.9731 30.2123C46.8253 29.0042 46.6747 27.7962 46.527 26.591C46.2662 26.6229 46.0026 26.6577 45.7419 26.6982C45.7129 26.4983 45.6839 26.2984 45.6521 26.0957L45.6492 26.0986Z" fill="white"/>
<path d="M49.4473 26.7738C49.4183 26.093 49.8181 25.6845 50.5771 25.6787C51.3361 25.6787 51.7388 26.0843 51.7156 26.7651C51.6924 27.5038 51.6721 28.2396 51.649 28.9784C51.6258 29.6591 51.2521 30.0329 50.5916 30.0358C49.9311 30.0387 49.5574 29.6678 49.5284 28.9871C49.5023 28.2483 49.4733 27.5125 49.4473 26.7738ZM50.2295 29.0102C50.2352 29.3144 50.3743 29.4274 50.5916 29.4274C50.8117 29.4274 50.9479 29.3115 50.9508 29.0073C50.9566 28.2396 50.9624 27.4748 50.9682 26.7071C50.9711 26.403 50.8204 26.2871 50.58 26.2871C50.3395 26.2871 50.1889 26.4058 50.1947 26.71C50.2063 27.4777 50.2179 28.2425 50.2295 29.0102Z" fill="white"/>
<path d="M54.4416 30.218C54.4184 30.1051 54.4011 30.0355 54.4416 29.6908C54.4677 29.4706 54.4967 29.2476 54.5227 29.0274C54.572 28.6363 54.4474 28.4712 54.123 28.4364C54.0418 28.4277 53.9578 28.419 53.8767 28.4103C53.8188 28.9839 53.7637 29.5604 53.7058 30.134C53.4827 30.1109 53.2568 30.0906 53.0337 30.0761C53.1438 28.6624 53.251 27.2458 53.3611 25.832C53.7463 25.861 54.1345 25.8987 54.5198 25.9421C55.3165 26.0319 55.6091 26.4085 55.5135 27.0546C55.499 27.1646 55.4816 27.2747 55.4671 27.3848C55.4034 27.8194 55.2122 28.0714 54.8762 28.1699V28.1815C55.2151 28.3669 55.2846 28.6971 55.2209 29.1375C55.189 29.3547 55.1572 29.572 55.1282 29.7864C55.0992 29.9921 55.0819 30.1427 55.1282 30.3079C54.8993 30.2731 54.6734 30.2441 54.4445 30.2151L54.4416 30.218ZM54.0679 26.5041C54.0245 26.9387 53.981 27.3703 53.9375 27.8049C54.0331 27.8136 54.1259 27.8251 54.2215 27.8338C54.4909 27.8628 54.6676 27.7759 54.711 27.437C54.7284 27.2979 54.7458 27.1588 54.7603 27.0198C54.7979 26.7185 54.6966 26.5708 54.43 26.5418C54.3084 26.5273 54.1896 26.5157 54.0679 26.5041Z" fill="white"/>
<path d="M57.6485 28.2656C57.9758 28.3351 58.3032 28.4133 58.6305 28.4944C58.5813 28.6914 58.532 28.8884 58.4828 29.0854C58.1612 29.0072 57.8397 28.9319 57.5181 28.8624C57.4312 29.2679 57.3414 29.6735 57.2545 30.082C57.6456 30.166 58.0337 30.2587 58.419 30.3572C58.3698 30.5542 58.3177 30.7512 58.2684 30.9453C57.6687 30.7917 57.0662 30.6556 56.4607 30.5397C56.7301 29.1463 56.9966 27.7528 57.2661 26.3594C57.9555 26.4926 58.645 26.6462 59.3258 26.8229C59.2765 27.0199 59.2244 27.2169 59.1752 27.411C58.7493 27.3009 58.3234 27.2024 57.8947 27.1097C57.8107 27.495 57.7267 27.8832 57.6456 28.2685L57.6485 28.2656Z" fill="white"/>
<g clip-path="url(#clip1_69_930)">
<path d="M40.8914 59.2141L27.6594 42.9944C27.6594 42.9944 35.682 50.3494 39.2269 54.079C39.6317 54.5039 40.0036 54.8486 40.3485 55.1309L40.9693 55.7461C41.8451 56.6109 43.0237 56.3761 43.8964 55.5113C44.7692 54.6466 45.0061 53.4757 44.1334 52.6109L43.5095 51.9928C43.2276 51.651 42.8797 51.2855 42.4509 50.8843C38.69 47.3718 31.2673 39.4224 31.2673 39.4224L47.6363 52.5307C47.6363 52.5307 49.1928 53.4876 46.9045 55.4192C45.7858 56.3612 45.5699 56.908 45.411 57.0061C45.312 57.1636 44.7602 57.3806 43.8095 58.489C41.8601 60.7564 40.8944 59.2141 40.8944 59.2141H40.8914Z" fill="white"/>
<path d="M44.566 54.8578L63.4463 73.5659L62.1166 74.8835L43.2363 56.1753L44.566 54.8578Z" fill="white"/>
<path d="M56.3876 67.8885C57.3683 66.9167 58.9579 66.9167 59.9386 67.8885L67.5142 75.3951C68.4949 76.3668 68.4949 77.9419 67.5142 78.9136C66.5335 79.8854 64.944 79.8854 63.9633 78.9136L56.3876 71.407C55.4069 70.4353 55.4069 68.8602 56.3876 67.8885ZM66.8724 78.2777C67.2383 77.9121 67.2383 77.3237 66.8724 76.9612C66.5065 76.5957 65.9097 76.5957 65.5408 76.9612C65.1749 77.3237 65.1749 77.9151 65.5408 78.2777C65.9097 78.6402 66.5035 78.6402 66.8724 78.2777Z" fill="white"/>
<path d="M56.8879 54.2275L58.1707 55.499L38.2965 75.1851L37.0137 73.9136L56.8879 54.2275Z" fill="white"/>
<path d="M56.0489 47.3803C56.0879 47.3179 56.1359 47.2584 56.1989 47.196L63.9635 39.5022C64.6833 38.789 65.9819 38.9197 66.8636 39.7964L72.7328 45.6091C73.6145 46.4828 73.7465 47.7725 73.0297 48.4828L65.2651 56.1766C65.2021 56.239 65.1391 56.2866 65.0792 56.3252L65.0971 56.343C65.0971 56.343 65.0702 56.349 65.0222 56.3579C64.8932 56.4262 64.7702 56.447 64.6473 56.4292C63.2317 56.6848 58.8441 57.291 56.9576 55.4218C55.0712 53.5526 55.683 49.2079 55.941 47.8023C55.923 47.6804 55.944 47.5556 56.0159 47.4308C56.0249 47.3832 56.0309 47.3565 56.0309 47.3565L56.0489 47.3743V47.3803ZM62.9528 53.4931C62.6889 53.7546 62.6889 54.1796 62.9528 54.4441C63.2167 54.7056 63.6456 54.7056 63.9125 54.4441L70.4295 47.9835C70.6934 47.722 70.6934 47.2971 70.4295 47.0326C70.1656 46.7711 69.7367 46.7711 69.4698 47.0326L62.9528 53.4902V53.4931ZM60.4516 51.0147C60.1877 51.2762 60.1877 51.7012 60.4516 51.9657C60.7155 52.2272 61.1444 52.2272 61.4083 51.9657L67.9283 45.5051C68.1922 45.2436 68.1922 44.8186 67.9283 44.5542C67.6644 44.2926 67.2355 44.2926 66.9716 44.5542L60.4546 51.0117L60.4516 51.0147ZM57.9503 48.5363C57.6864 48.7978 57.6864 49.2227 57.9503 49.4872C58.2143 49.7487 58.6431 49.7487 58.91 49.4872L65.424 43.0267C65.688 42.7652 65.688 42.3402 65.424 42.0757C65.1601 41.8142 64.7283 41.8142 64.4643 42.0757L57.9473 48.5333L57.9503 48.5363Z" fill="white"/>
<path d="M43.8217 68.4411C44.7665 69.3802 44.7665 70.8987 43.8217 71.8348L36.513 79.077C35.5653 80.013 34.0327 80.016 33.088 79.077C32.1433 78.1409 32.1433 76.6193 33.088 75.6832L40.3968 68.4411C41.3445 67.502 42.877 67.502 43.8217 68.4411ZM33.7058 78.4648C34.0597 78.8154 34.6356 78.8154 34.9894 78.4648C35.3433 78.1141 35.3433 77.5435 34.9894 77.1929C34.6356 76.8422 34.0597 76.8422 33.7058 77.1929C33.352 77.5435 33.352 78.1141 33.7058 78.4648Z" fill="white"/>
</g>
</g>
<defs>
<clipPath id="clip0_69_930">
<rect width="101" height="101" fill="white" transform="translate(0.5)"/>
</clipPath>
<clipPath id="clip1_69_930">
<rect width="45.8319" height="40.7395" fill="white" transform="matrix(-1 0 0 1 73.4917 39.042)"/>
</clipPath>
</defs>
</svg>
