<svg width="50" height="49" viewBox="0 0 50 49" fill="none" xmlns="http://www.w3.org/2000/svg">
<path fill-rule="evenodd" clip-rule="evenodd" d="M48.9134 37.3725C48.556 36.8029 44.1713 37.1232 43.3537 36.9069C41.1851 36.3303 39.2977 35.0089 37.1466 34.3435C32.6486 32.9232 27.2475 32.1564 25.0793 27.1228C23.6637 23.8323 22.1627 21.4115 19.5785 18.9688C17.3508 16.8825 15.0698 14.8139 11.8226 15.3872C10.6691 15.578 8.77458 16.9734 7.68842 16.2057C5.28479 14.5449 6.28898 7.9433 6.74209 5.74322C7.00368 4.51902 7.14159 3.45414 7.84689 2.1784C7.79341 2.12492 7.75776 2.08927 7.70428 2.03579C5.98371 2.50853 4.29285 1.4898 2.64566 2.56656C2.72498 4.69768 2.13078 7.14581 2.33433 9.25967C2.55599 11.4624 3.02666 13.7726 4.06418 15.7299C4.3324 16.2104 4.76023 16.6382 5.02845 17.1187C4.51633 17.8447 3.75243 17.7529 3.15021 18.1413C2.2292 18.7414 0.371821 20.5631 0.0940682 22.1957C-0.04467 23.0475 0.490669 23.7243 0.529226 24.5057C0.791513 28.0226 3.45398 32.3124 5.94965 34.808C7.16183 36.0202 8.60396 37.0025 10.0283 37.9669C13.0195 40.0383 16.2204 41.2582 19.4936 42.7626C22.5355 44.1772 25.2072 46.2829 28.5306 47.0239C33.7379 48.1983 40.4994 47.2125 44.9268 44.1756C45.6175 43.6988 46.4687 43.418 47.1588 42.7992C48.7868 41.3495 49.9139 38.939 48.9132 37.337L48.9134 37.3725Z" fill="white"/>
<path fill-rule="evenodd" clip-rule="evenodd" d="M7.66863 2.00014C7.66863 2.00014 7.75776 2.08927 7.81124 2.14275C7.12376 3.43632 6.96802 4.48337 6.70644 5.70757C6.07893 8.72378 5.98221 11.2449 6.73796 13.8048C6.93585 14.4626 7.40459 16.2756 8.06305 16.651C9.65814 15.876 11.8749 15.1566 13.7399 15.2881C16.191 15.4397 19.1862 18.5411 20.5768 19.967C21.2185 20.6088 21.9839 21.0912 22.4129 21.8031C23.1993 23.1202 23.9509 24.6147 24.5955 26.0022C24.9 26.6604 25.4397 28.4737 25.9566 28.9552C26.8656 29.8288 28.1808 30.1535 29.1785 31.0097C29.802 31.5271 30.4442 32.2754 31.0855 32.8106C31.2816 33.0067 31.4586 32.8653 31.6188 32.9547C33.2913 33.8136 35.2096 33.9631 36.9335 34.3427C37.6977 34.5055 38.1786 34.8803 38.8899 35.1671C40.7752 35.9558 42.3596 36.9741 44.2784 37.2657C45.5932 37.4483 47.7395 36.8707 48.8957 37.3902C49.8963 38.9922 48.7516 41.4204 47.1413 42.8524C46.4512 43.4712 45.5999 43.752 44.9093 44.2288C43.1029 45.4647 40.9926 46.1845 38.8102 46.62C38.3314 46.7779 37.8526 46.9359 37.3561 47.1115C34.5698 47.5091 30.6286 47.7068 27.518 46.8956C26.4338 46.6251 25.3657 45.9461 24.227 45.3735C23.1239 44.801 22.4129 44.6206 21.3443 43.7997C20.7566 43.3535 20.0977 42.8715 19.3153 42.5843C18.284 42.2252 17.2885 41.9372 16.3108 41.667C15.7414 41.3452 15.172 41.0588 14.6025 40.737C12.4319 39.6276 10.9009 38.6273 9.22691 37.3778C8.55062 36.9845 7.87433 36.5912 7.18022 36.1801C6.04017 35.2523 5.00486 33.8633 4.32567 32.7242C4.05758 32.2792 3.8778 31.7103 3.521 31.2827C1.57684 29.0556 0.682206 27.3119 0.45806 24.47C0.419504 23.6885 -0.115836 23.0117 0.0229023 22.1599C0.300655 20.5273 2.14034 18.7233 3.07905 18.1055C3.68127 17.7172 4.46285 17.7912 4.95729 17.0829C4.70689 16.6202 4.26124 16.1746 3.99301 15.6941C2.93781 13.7545 2.48482 11.4266 2.26317 9.22387C2.05961 7.11002 2.63612 4.67958 2.57449 2.53077C4.22168 1.45401 5.91254 2.47274 7.63311 2L7.66863 2.00014ZM6.71196 2.56463C6.02296 3.46755 4.44278 3.51467 3.43042 3.45745C3.28767 3.27933 3.19799 3.04814 3.21471 2.78185C3.25009 2.74648 3.2675 2.65776 3.30287 2.62239C3.88685 2.10971 5.78887 2.63207 6.60514 2.49319C6.62296 2.51102 6.65862 2.54667 6.69413 2.54681L6.71196 2.56463ZM6.41361 3.46907C6.36138 3.73522 6.29146 4.01905 6.23936 4.32072C6.00873 4.37309 5.77795 4.38995 5.54732 4.44232C5.61932 4.6912 5.31738 4.67226 5.24649 4.7075C5.2288 4.72519 5.21125 4.77839 5.19356 4.79608C5.26459 4.79636 5.33562 4.79663 5.38896 4.8146L5.38923 4.88562C4.64537 5.37992 3.90151 5.87421 3.13982 6.35068C3.08648 6.33272 3.05097 6.33258 2.99763 6.31462L3.0681 6.17284C3.19053 5.69388 5.86529 4.01739 6.39565 3.41573L6.41361 3.46907ZM5.527 3.78524C5.28062 4.3525 3.756 4.98581 3.24305 5.49876C3.11826 5.37397 3.17188 5.46297 3.17119 5.2854C3.98608 4.79138 4.67619 4.17258 5.47366 3.76727L5.527 3.78524ZM6.24047 4.60483C6.26244 5.68808 3.51459 6.83158 3.23559 8.1445C3.27124 8.18015 3.30689 8.2158 3.34255 8.25145C3.44909 8.25187 5.62457 6.04074 5.88989 5.77542C5.88989 5.77542 5.94309 5.75787 5.96092 5.77569C6.26742 6.96659 3.76913 8.35965 3.16981 9.49376C3.1343 9.49362 3.0811 9.51117 3.04558 9.51103C2.70578 8.88822 3.32348 7.914 2.91292 7.36194C3.52979 6.17463 4.73644 5.96625 5.56832 5.27697C5.79827 5.04703 6.01052 4.83477 6.24047 4.60483ZM4.1964 4.08192C3.91325 4.32942 3.64779 4.55922 3.36465 4.80672L3.27552 4.71758C3.32789 4.48695 3.3804 4.29183 3.43277 4.06119C3.66355 4.04434 3.89432 4.02748 4.14292 4.02845L4.1964 4.08192ZM3.37033 10.8263C3.37033 10.8263 3.4245 11.0573 3.46043 11.164C3.60276 11.2356 3.69162 11.2537 3.86919 11.2544C3.88687 11.2367 3.90456 11.219 3.93994 11.1837C4.18467 10.1902 4.82254 9.83757 5.51223 9.11223C6.1548 9.96706 4.47334 11.3633 3.9445 12.3556C3.98043 12.4623 4.03418 12.5868 4.05243 12.7112C4.1059 12.7647 4.15938 12.8181 4.23055 12.8539L4.2662 12.8896L4.33695 12.8188C4.54935 12.6421 4.40591 12.2864 4.65326 11.9677C4.90062 11.6491 5.18349 11.3305 5.43084 11.0119C5.46649 11.0475 5.51983 11.0655 5.57317 11.0835C5.52136 11.4562 5.55825 11.8114 5.70142 12.0961C5.27773 12.7337 4.30324 13.2804 4.14612 13.9723C4.16422 14.0611 4.16464 14.1677 4.16491 14.2387C4.53843 14.4 4.83968 14.2413 5.12324 14.1004C5.01601 13.9224 4.90961 13.9575 4.74972 13.9391C4.7319 13.9213 4.71393 13.8679 4.71379 13.8324C5.04973 13.4608 5.38566 13.0893 5.7039 12.7354C5.91782 12.9493 5.84817 13.3041 6.00902 13.5711C5.60275 14.12 5.0536 14.4552 4.64788 15.1462L4.57685 15.1459C4.12899 14.132 3.50299 12.9754 3.37434 11.8562C3.31906 11.341 3.31671 10.7373 3.10183 10.2748C3.31436 10.1336 3.5092 10.01 3.72174 9.8688C3.6297 9.03387 5.09946 7.99194 5.70057 7.31952C6.25429 8.15625 3.81184 10.2065 3.31699 10.8083L3.37033 10.8263ZM18.6734 19.0895C20.0096 20.2489 21.2554 20.964 22.0953 22.3346C23.9002 25.2715 24.7299 28.5775 26.7652 31.4265C27.1401 31.9429 28.0489 32.7455 28.5114 32.9604C28.6892 33.0321 28.9022 32.9974 29.1516 33.2115C30.4167 34.3351 30.9545 35.6512 32.8202 35.9603C32.8556 35.9249 32.9088 35.9074 32.9443 35.9075C32.7839 35.7471 32.6234 35.5867 32.463 35.4262C32.6034 35.0006 32.7436 34.5395 32.884 34.1139C33.1328 34.1503 33.3286 34.2754 33.5417 34.2762C33.7213 34.8096 33.2443 35.4293 33.5482 35.9454C33.6902 35.9459 33.7081 35.9638 33.832 35.8755C33.706 35.4311 33.9348 34.917 33.9684 34.4199C34.2527 34.4566 34.5369 34.4932 34.8033 34.512C34.7514 34.8492 34.7171 35.1686 34.683 35.5236C34.7724 35.6838 34.8614 35.7374 35.0926 35.8271C35.1456 35.774 35.181 35.7387 35.2341 35.6856C35.1618 35.3657 35.0897 35.0813 35.2479 34.6735L35.2833 34.6381C35.4785 34.6211 35.6384 34.6395 35.9231 34.7827C35.9246 35.1733 35.7843 35.6345 35.9456 36.008L36.2122 36.0623C36.2122 36.0623 36.3892 35.9209 36.4777 35.868C36.3343 35.5123 36.263 35.441 36.3324 35.0151C36.4208 34.9267 36.3676 34.9442 36.4563 34.9268C36.634 34.963 36.7939 34.9814 36.9716 35.0176C37.0978 35.4975 37.0637 35.8525 37.4558 36.2447C37.5269 36.245 37.5979 36.2453 37.6866 36.2279C37.7397 36.1748 37.7394 36.1038 37.7748 36.0684C37.4894 35.7477 37.5949 35.464 37.3273 35.161C37.5931 35.0023 38.0026 35.3057 38.2161 35.4131C38.164 35.7148 38.1296 35.9987 38.3259 36.2303C38.3793 36.2838 38.4328 36.3373 38.504 36.3731L38.5394 36.3377C38.5741 36.1248 38.6087 35.9118 38.6256 35.681C38.8568 35.7707 39.0881 35.8959 39.3193 35.9856C39.2662 36.0387 39.2309 36.0741 39.1778 36.1271L39.1781 36.1982C39.2316 36.2516 39.3204 36.2697 39.3916 36.3055C39.4269 36.2701 39.4446 36.2525 39.4978 36.2349C39.4444 36.1814 39.4086 36.1103 39.355 36.0213L39.408 35.9682C40.422 36.4516 41.4005 36.9348 42.3969 37.4359C43.7477 37.7608 44.9377 37.8542 46.0745 37.9297C46.5363 37.967 48.1328 37.547 48.5252 38.0102C48.7217 38.3129 48.7408 38.6503 48.7954 38.9879C48.0888 39.944 47.3958 39.817 46.491 40.0088C45.4974 40.218 44.5042 40.5338 43.4569 40.6185C42.4802 40.5969 41.5212 40.5577 40.5622 40.5184C40.5097 40.7136 40.457 40.8732 40.4045 41.0683C40.3161 41.1567 39.9963 41.12 39.9974 41.4041C39.9805 41.6349 40.2287 41.5293 40.3713 41.6719C40.6566 41.9571 40.5004 42.8976 40.2707 43.1986C40.3419 43.2344 40.4308 43.2525 40.5197 43.3061C40.5377 43.3594 40.538 43.4305 40.556 43.4838L40.5383 43.5015C40.0939 43.3755 39.6494 43.2494 39.205 43.1234C38.9007 42.5007 39.447 41.4197 39.4087 40.7093C39.3909 40.6915 39.3199 40.6912 39.2843 40.691C39.2135 40.7263 39.1603 40.7438 39.0715 40.7612C38.9324 41.5065 38.8105 42.1275 38.8131 42.8023C38.6896 42.9971 38.6186 42.9968 38.441 42.9961L38.4233 43.0138C38.548 43.1031 38.6369 43.1567 38.7438 43.2282C38.7621 43.388 38.7627 43.5301 38.7632 43.6722C38.5683 43.7602 38.4616 43.7243 38.2479 43.5814C38.1418 43.6875 38.1949 43.6344 38.089 43.8116C37.6804 43.7567 37.3964 43.7911 37.0586 43.6655C36.7541 43.0073 36.9097 41.9248 37.0844 41.1797C37.4744 41.0036 37.9188 41.1296 38.4165 41.2736C38.5227 41.1675 38.6466 41.0792 38.7706 40.9909C38.6814 40.9018 38.61 40.795 38.5209 40.7058C38.1653 40.5979 37.9345 40.6148 37.5254 40.4178C37.507 40.258 37.4886 40.0981 37.4702 39.9382C37.3989 39.8669 37.3099 39.8133 37.2209 39.7597C37.1856 39.795 37.1679 39.8127 37.0968 39.8124C37.0973 39.919 37.0977 40.0255 37.0982 40.1676C36.8318 40.1488 36.5826 40.0058 36.3336 39.8983C36.3328 39.6852 36.3321 39.5076 36.3313 39.2945C36.2778 39.241 36.2243 39.1875 36.1532 39.1518L36.1175 39.1161C35.976 39.2576 35.9412 39.435 35.9064 39.6125C35.7644 39.6474 35.6934 39.6472 35.4977 39.5576C35.4607 39.1668 35.4774 38.9005 35.2276 38.5799C35.0855 38.5794 35.0145 38.5791 34.8905 38.6674C34.9448 38.934 34.999 39.165 35.0533 39.4316C34.7872 39.4838 34.5031 39.4827 34.183 39.3749C34.2169 38.9489 34.2152 38.5227 34.2312 38.0789L34.1599 38.0076C34.1599 38.0076 34.0715 38.096 34.0183 38.1136C33.8065 38.4324 33.7553 38.9826 33.7389 39.3199C33.5262 39.4256 33.2598 39.4068 32.9751 39.2637C32.7776 38.7125 33.0063 38.1629 33.0039 37.5236C33.0039 37.5236 33.0392 37.4883 33.0569 37.4706C32.9858 37.4348 32.8969 37.4167 32.8079 37.3631C32.7902 37.3807 32.737 37.3983 32.7015 37.3982C32.4729 37.9832 32.3516 38.7463 32.5487 39.191L32.4779 39.2617C32.1938 39.2606 31.8919 39.2417 31.5722 39.2405C31.4464 38.8316 31.5329 38.2459 31.6908 37.7671C31.6552 37.7315 31.637 37.6426 31.6191 37.5893C31.0159 37.729 31.233 38.7597 31.075 39.2385C30.7553 39.2018 30.4533 39.1828 30.1159 39.1638C30.1135 38.56 30.0935 37.974 30.0911 37.3702C30.0198 37.2989 29.8953 37.2452 29.8063 37.1916L29.6825 37.3154C29.7732 37.7952 29.8651 38.5946 29.601 39.1795C29.3881 39.2142 29.3172 39.2494 29.0147 39.0885C28.9949 38.5734 29.0807 37.8102 29.3449 37.2608C29.3093 37.2251 29.2913 37.1718 29.2735 37.154C28.6703 37.2937 28.657 38.4478 28.6058 38.9626C28.6058 38.9626 28.5704 38.9979 28.535 39.0333C28.2683 38.9435 28.0194 38.8715 27.7706 38.7995C27.5909 38.2661 27.9075 37.486 27.6747 36.9702C27.6568 36.9524 27.5858 36.9521 27.5503 36.9519C27.2846 37.1107 27.1086 37.5362 26.8612 37.8193C26.8258 37.8547 26.8261 37.9257 26.8262 37.9613C27.0216 37.9798 27.0565 37.8379 27.1093 37.7138C27.1981 37.6964 27.1802 37.6785 27.3047 37.7323C27.3766 37.9456 27.2361 38.3357 27.2549 38.6022C27.2372 38.6199 27.2018 38.6552 27.2019 38.6908C27.0419 38.6369 26.8641 38.5651 26.704 38.5112C26.6844 38.0317 26.8592 37.3221 26.7332 36.8777C26.6443 36.8596 26.5377 36.8237 26.4133 36.8055L26.2361 36.9113C26.2361 36.9113 26.3612 37.1071 26.4149 37.2316C26.3453 37.5865 26.2401 37.9412 26.1705 38.2961C25.9932 38.3664 25.6732 38.2586 25.4778 38.2401C25.4049 37.7782 25.6331 37.0865 25.6136 36.6425C25.5603 36.6246 25.4891 36.5888 25.4181 36.5885C25.4004 36.6062 25.3649 36.606 25.3117 36.6236C25.2247 37.1027 25.1378 37.5818 25.0509 38.0609L25.0332 38.0786C25.0332 38.0786 24.8023 38.0599 24.6602 38.0594C24.66 37.9883 24.6597 37.9173 24.6772 37.8641C24.6594 37.8463 24.6416 37.8285 24.6238 37.8106C24.535 37.828 24.4642 37.8633 24.3754 37.8807C24.321 37.5786 24.4612 37.1175 24.4423 36.8155C24.4067 36.7799 24.3533 36.7619 24.3 36.744C24.2645 36.7438 24.2113 36.7614 24.1758 36.7612C24.1237 37.0629 24.0716 37.3646 24.0195 37.6662L24.0018 37.6839C24.0018 37.6839 23.6464 37.6115 23.4327 37.4686C23.4851 37.238 23.5552 36.9897 23.6254 36.7768C23.5897 36.7412 23.5717 36.6879 23.5716 36.6523C23.4474 36.6696 23.3054 36.7046 23.1814 36.7574C23.1642 36.9171 23.1472 37.1124 23.1301 37.2721C23.1301 37.2721 23.1301 37.2721 23.1124 37.2898C22.9348 37.2891 22.5616 37.1989 22.401 37.0029C22.2223 36.7181 22.4683 36.0443 22.6267 35.672C22.6088 35.6542 22.5732 35.6186 22.5377 35.6184C22.3083 35.9904 22.221 36.363 22.0097 36.8238C21.4944 36.733 20.3731 36.0717 20.3184 35.6986C20.4414 35.3617 20.5644 35.0248 20.6518 34.6877C20.757 34.333 20.8088 33.9603 21.1276 33.7485L21.1807 33.6954C21.3946 33.9093 21.3249 34.2642 21.4858 34.5312C21.6987 34.4965 21.9117 34.4618 22.1246 34.4271C22.3029 34.6054 22.5523 34.8194 22.7651 34.7492C22.783 34.767 22.8008 34.7849 22.8186 34.8027C22.8349 34.4299 21.3361 32.5773 21.068 32.1324C20.6926 31.4739 20.1932 30.9037 19.7466 30.2095C18.6568 28.5183 17.9024 26.3136 15.5535 25.0259C15.5709 24.9372 15.6062 24.8663 15.6413 24.7599C15.6056 24.7243 15.5875 24.6354 15.5695 24.5821C15.4098 24.5992 15.392 24.5814 15.2506 24.7584C14.9664 24.7218 14.521 24.3471 14.166 24.3813C14.0239 24.3807 14.1126 24.3633 13.9887 24.4516C13.971 24.4693 13.9534 24.5225 13.9358 24.5402C13.9547 24.8421 14.4172 25.057 14.8086 25.2361C14.8088 25.3071 14.8092 25.4137 14.8095 25.4847C14.4196 25.6607 14.0806 25.251 13.8844 25.0194C13.5295 25.0891 12.6126 26.7546 12.454 27.0559C12.4899 27.1626 12.526 27.3048 12.5619 27.4114C12.4207 27.624 12.2795 27.8365 12.1382 28.049C11.6627 29.0593 11.1517 30.0695 10.6762 31.0798C10.5346 31.1857 10.4457 31.1676 10.2503 31.1491C10.2325 31.1313 10.1791 31.1133 10.1613 31.0955C10.3908 30.759 10.4959 30.3688 10.6186 29.9609C10.5651 29.9074 10.5116 29.8539 10.4403 29.7826C10.3694 29.8178 10.2984 29.8176 10.2275 29.8528C10.158 30.2432 9.99964 30.6154 9.78821 31.0408C9.61092 31.1111 9.54003 31.1464 9.30884 31.0567C9.44896 30.56 9.58908 30.0634 9.72921 29.5667C9.64007 29.4776 9.56863 29.3708 9.49719 29.264C10.0784 28.041 10.7657 26.7119 11.4907 25.9157L11.526 25.8803C10.7266 25.7884 9.6181 28.3944 9.12422 29.2448C9.05319 29.2445 8.96434 29.2264 8.87548 29.2083C8.89275 29.0841 8.91003 28.9598 8.9273 28.8356C8.87396 28.8176 8.80293 28.8174 8.73177 28.7816C8.62564 28.8877 8.57327 29.1183 8.46686 29.1534C8.12927 29.0988 7.77399 29.0619 7.4364 29.0074C7.59269 28.1024 8.49353 26.8807 9.00606 26.2612C9.4303 25.7656 9.39326 25.3748 9.7292 25.0032C10.5115 25.2549 11.7535 25.0111 11.874 24.035C11.8733 23.8574 11.8197 23.7684 11.6949 23.6436C11.6409 23.4481 11.587 23.2881 11.5508 23.1104C12.6506 22.8305 14.2691 23.4938 14.813 21.809C14.9007 21.543 15.0073 21.5435 14.9709 21.3302C14.9154 20.744 13.5817 20.2594 13.4029 19.9391C13.2061 19.5654 14.8004 18.5773 13.6424 17.5961C13.2503 17.2395 12.3965 16.8455 11.9348 16.8437C11.5441 16.8422 9.84152 17.3682 9.71868 17.7407C9.52342 17.7577 9.31033 17.7568 9.11507 17.7738C8.86634 17.7373 8.45633 17.3273 8.36679 17.1317C9.00438 16.708 12.0189 15.6543 12.7296 15.7636C13.2626 15.8367 13.6887 15.8029 14.1863 15.9113C14.5241 16.037 14.862 16.1626 15.1997 16.2527C16.5533 17.2878 17.3549 17.948 18.5842 19.0004L18.6734 19.0895ZM6.31525 14.691C6.014 14.8496 5.57097 15.0787 5.34144 15.4152C5.27042 15.415 5.18156 15.3969 5.09271 15.3788L5.05706 15.3431C5.35706 14.8648 5.69285 14.4577 6.08213 14.1041C6.15385 14.282 6.2257 14.4953 6.29742 14.6732L6.31525 14.691ZM12.5775 17.734C12.5775 17.734 12.6132 17.7697 12.631 17.7875C12.0824 18.2648 10.964 18.3492 10.2003 18.293C10.2179 18.2753 10.2533 18.2399 10.2532 18.2044C10.9614 17.6745 11.6004 17.6059 12.453 17.6803C12.4886 17.7159 12.5243 17.7516 12.5599 17.7872L12.5775 17.734ZM13.2367 18.2871C13.2367 18.2871 13.2903 18.3761 13.2904 18.4116C13.2194 18.4113 13.1662 18.4288 13.0951 18.4286C12.9887 18.4637 12.8647 18.5165 12.7404 18.5337C12.7404 18.5337 12.7226 18.5159 12.7225 18.4804C12.8641 18.3744 12.9881 18.2861 13.1297 18.1801L13.2367 18.2871ZM6.76353 15.8114C6.58693 16.0593 6.4446 15.9877 6.25003 16.1823C6.14335 16.1464 6.03681 16.146 5.93012 16.11C5.9123 16.0922 5.89433 16.0389 5.8942 16.0034C6.10645 15.7911 6.26509 15.4899 6.4059 15.1708C6.51327 15.3843 6.63847 15.6156 6.76353 15.8114ZM12.3846 18.3548C12.3496 18.4967 12.3143 18.5321 12.1723 18.567C12.137 18.6024 12.1016 18.6378 12.0482 18.6198C12.0126 18.5842 11.9592 18.5662 11.9059 18.5482C11.9059 18.5482 11.8881 18.5304 11.8879 18.4949C11.8879 18.4949 11.9233 18.4595 11.9232 18.424C12.0651 18.389 12.1892 18.3363 12.3311 18.3013L12.3846 18.3548ZM13.0442 19.0143C12.956 19.1738 12.6196 19.4389 12.6386 19.7408C12.6572 19.9717 12.8 20.1498 12.9959 20.3104C12.9959 20.3104 13.0139 20.3637 12.9962 20.3814C12.8717 20.3277 12.7649 20.2562 12.6582 20.2203C12.1976 20.5026 11.6862 21.4062 11.2779 21.4224C11.1714 21.4575 11.065 21.4926 10.9763 21.51C10.9585 21.4922 10.9405 21.4388 10.9404 21.4033C11.5773 20.8021 11.6977 19.7904 12.2637 19.2244C12.4942 19.1365 12.7602 19.0487 12.9907 18.9609C12.9907 18.9609 13.0263 18.9965 13.0442 19.0143ZM5.69686 15.4876C5.57332 15.6825 5.44979 15.8773 5.30842 16.0543L5.18419 16.0716C5.18419 16.0716 5.04144 15.8935 4.98782 15.8045C4.98782 15.8045 4.96986 15.7512 5.00524 15.7158C5.21804 15.6456 5.41316 15.5931 5.60787 15.434C5.64352 15.4697 5.66135 15.4875 5.69686 15.4876ZM7.01365 16.203C6.83788 16.664 6.53663 16.8227 6.28997 17.3189C6.30807 17.4078 6.32617 17.4966 6.3621 17.6033C6.39776 17.6389 6.48661 17.6571 6.52226 17.6927C6.73493 17.587 7.0348 17.0732 7.17589 16.8252C7.44217 16.8084 7.63854 17.0756 7.65747 17.3775C7.26806 17.6956 6.79062 18.2087 6.54396 18.7049L6.47293 18.7046C6.22143 17.9579 5.97006 17.2466 5.71856 16.4999C6.10866 16.3593 6.51659 16.2366 6.9067 16.0961C6.94235 16.1317 6.978 16.1674 7.01365 16.203ZM11.4645 19.2035C11.1108 19.5573 10.6501 19.8041 10.3677 20.2647C10.279 20.2821 10.1726 20.3172 10.0839 20.3346C10.0839 20.3346 10.0661 20.3168 10.0659 20.2812C10.3839 19.8563 10.8619 19.4853 10.949 19.0417C11.0909 19.0067 11.2151 18.9895 11.3749 18.9723C11.393 19.0612 11.4287 19.1324 11.4647 19.239L11.4645 19.2035ZM8.38006 20.541C8.38006 20.541 8.29134 20.5584 8.25583 20.5583C8.25583 20.5583 8.25583 20.5583 8.238 20.5405C8.82171 19.9568 9.35207 19.3551 9.90026 18.7713C10.1129 18.6656 10.5402 18.9513 10.7708 18.899C10.5952 19.3955 8.85708 19.9214 8.39775 20.5233L8.38006 20.541ZM8.15605 17.7346C8.21216 18.4628 7.18474 19.0981 6.74309 19.6823C6.74309 19.6823 6.68975 19.6644 6.67206 19.682C6.63613 19.5754 6.61789 19.451 6.58196 19.3443C6.95272 18.7953 7.51763 17.9452 7.97793 17.5918C8.03141 17.6453 8.10257 17.6811 8.15605 17.7346ZM14.1925 22.073C14.0864 22.1791 13.9623 22.2319 13.8562 22.338C12.8812 22.7782 12.0424 21.6917 10.8394 22.8235C10.6638 23.32 10.8605 23.6936 10.7914 24.1906C10.6499 24.3321 10.5261 24.4559 10.3846 24.5974C9.95776 24.4182 9.51307 24.2211 9.08621 24.0419C9.08621 24.0419 9.06838 24.024 9.05055 24.0062L9.12131 23.9355C9.52951 23.8838 9.97337 23.8678 10.3995 23.8694C10.4521 23.6743 10.5211 23.1774 10.3962 23.0171C10.271 22.7857 9.8624 22.7309 9.7021 22.606C9.79013 22.411 12.2905 21.5506 12.5571 21.6049C12.5747 21.5873 12.6279 21.5697 12.6635 21.5698C12.6813 21.5877 12.6991 21.6055 12.7169 21.6233L12.6992 21.641C12.5043 21.729 12.2916 21.8347 12.0966 21.9228C12.115 22.0827 12.1328 22.1005 12.2398 22.2074C12.8073 22.0321 13.3747 21.8212 13.9422 21.6458C13.9235 21.3794 13.6917 21.1477 13.4777 20.8983C13.3178 20.8799 13.1757 20.8793 13.0158 20.8609C13.1214 20.6128 13.0855 20.5061 13.1206 20.3997C14.0281 20.8826 14.0831 21.3268 14.1925 22.073ZM9.20683 18.5377L9.22507 18.6621C8.69333 18.9086 8.17941 19.173 7.64766 19.4195C7.89474 19.0298 8.35421 18.4634 8.74418 18.2873C8.90434 18.3767 9.04667 18.4483 9.20683 18.5377ZM7.08635 21.193C7.08635 21.193 6.99736 21.1394 6.94402 21.1214C6.90781 20.9437 6.88929 20.7483 6.83526 20.5528C6.92232 20.1092 8.57076 19.3521 8.90683 19.016C8.96114 19.2826 7.36867 20.7324 7.06852 21.1752L7.08635 21.193ZM48.6573 40.0173C48.481 40.3362 48.3225 40.673 48.1462 40.9919C48.1108 41.0273 48.0931 41.045 48.0577 41.0803C48.0577 41.0803 48.0577 41.0803 48.0399 41.0625C47.968 40.8491 48.0733 40.5299 48.0725 40.3168C48.2318 40.1932 48.3912 40.0695 48.5506 39.9813C48.5685 39.9992 48.6218 40.0171 48.6396 40.0349L48.6573 40.0173ZM5.33302 17.8124C5.42312 18.1501 5.53091 18.4701 5.62101 18.8079C5.21418 19.2147 4.59414 19.5852 4.66752 20.1892C4.45512 20.3659 4.38354 20.2236 4.13425 20.0451C3.74512 20.4342 3.28315 20.3614 2.94708 20.6974C2.57564 21.0689 2.52437 21.5836 2.20626 21.973C1.8174 22.4332 1.35766 22.9286 1.09344 23.478C1.00445 23.4244 0.879944 23.3707 0.790951 23.3171C0.754192 22.9973 0.699607 22.6597 0.645161 22.3576C0.852577 20.9024 2.6204 18.885 3.63069 18.4095C3.82567 18.3214 4.18109 18.3939 4.32273 18.2879C4.64153 18.076 4.92495 17.8996 5.20837 17.7231L5.27968 17.7944L5.33302 17.8124ZM8.80803 21.0044C8.66583 20.9683 8.50595 20.9499 8.34593 20.896C8.3281 20.8782 8.31028 20.8604 8.29245 20.8426C8.57518 20.4885 9.00066 20.3126 9.37266 20.0832C9.40928 20.3675 9.02028 20.7921 8.79034 21.0221L8.80803 21.0044ZM10.3525 20.9216C10.3525 20.9216 10.2106 20.9566 10.1397 20.9918L10.1928 20.9387C10.1566 20.761 10.1746 20.8144 10.263 20.7259C10.2988 20.7971 10.2991 20.8681 10.3349 20.9393L10.3525 20.9216ZM47.4385 41.6639C47.0313 41.9642 46.3745 42.0149 45.8594 41.9951C45.6805 41.6393 45.8205 41.1071 45.7302 40.7339C46.2797 40.4697 46.9366 40.4545 47.5221 40.3325C47.6119 40.5992 47.4907 41.3977 47.4562 41.6462L47.4385 41.6639ZM27.2944 30.5052C27.4371 30.6833 27.4737 30.9676 27.4037 31.2159C27.1716 30.9131 26.9396 30.6104 26.7076 30.3076C26.743 30.2722 26.7605 30.219 26.7781 30.1658C26.9384 30.2907 27.1164 30.398 27.2944 30.5052ZM28.4336 31.2199C28.4522 31.4508 28.311 31.6634 28.2943 31.9297L28.2412 31.9827C28.0986 31.8401 27.9384 31.7507 27.8137 31.6259C27.8127 31.3773 27.7408 31.164 27.8463 30.8803C28.0421 31.0053 28.2201 31.1126 28.4336 31.2199ZM4.28957 18.8915C4.48524 18.981 4.48524 18.981 4.52131 19.1232C4.52173 19.2298 4.52159 19.1942 4.41518 19.2293C3.26464 20.166 2.32607 20.8193 1.40823 22.2363C1.24835 22.2179 1.23052 22.2001 1.21214 22.0402C1.36857 21.1707 3.77565 19.1558 4.30726 18.8738L4.28957 18.8915ZM29.2 31.9509C29.1653 32.1639 29.1484 32.3947 29.1316 32.6254C29.1139 32.6431 29.0962 32.6608 29.0608 32.6962C28.9539 32.5892 28.8115 32.5176 28.6869 32.4284C28.7575 32.3221 28.8281 32.2158 28.8987 32.1096C28.8097 32.056 28.7207 32.0023 28.6319 31.9842C28.6845 31.8246 28.7195 31.6827 28.7723 31.5586C28.9149 31.7012 29.0753 31.8617 29.2179 32.0043L29.2 31.9509ZM6.14571 21.3136C5.86229 21.4901 5.3123 21.6122 4.99281 21.6465L5.06329 21.5047C5.06329 21.5047 5.02764 21.4691 5.00981 21.4513C4.70828 21.5389 4.46079 21.822 4.1594 21.9451C3.85774 21.9972 3.55608 22.0493 3.27224 22.1193C3.07643 21.9942 3.0405 21.8875 3.07519 21.6746C3.35916 21.6402 3.25151 21.3556 3.57086 21.2858C4.20957 21.1463 5.3644 21.3106 5.89531 20.851C5.84183 20.7975 5.82373 20.7086 5.78794 20.6375C5.6814 20.6371 5.57486 20.6366 5.45049 20.6184C5.53837 20.3879 5.52027 20.2991 5.43086 20.1389C5.53699 20.0328 5.66094 19.9445 5.7849 19.8562C6.03447 20.1057 6.16201 20.9408 6.1634 21.2959L6.14571 21.3136ZM30.3397 32.8077C30.3052 33.0562 30.3417 33.3049 30.5022 33.5008C30.5734 33.5366 30.6446 33.5724 30.7157 33.6082C30.7157 33.6082 30.7514 33.6439 30.7692 33.6617C30.7866 33.573 30.7685 33.4841 30.7683 33.4131L30.7859 33.3954C30.7859 33.3954 30.9819 33.556 31.0887 33.6274C31.072 33.8937 31.0731 34.1778 31.0741 34.4264L31.0564 34.4441C30.3806 34.1929 29.9687 33.2857 29.4696 32.7866C29.451 32.5912 29.4504 32.4136 29.5561 32.2009C29.8233 32.4328 29.9307 32.6463 30.3399 32.8432L30.3397 32.8077ZM32.3502 33.8277C32.3701 34.3782 32.1935 34.6261 32.1244 35.123C32.0712 35.1406 32.018 35.1581 31.9648 35.1757C31.7867 35.0329 31.5731 34.8901 31.3771 34.7295C31.3771 34.7295 31.3415 34.6938 31.3059 34.6937L31.3236 34.676C31.3236 34.676 31.5543 34.6236 31.6785 34.6063C31.6246 34.4463 31.5536 34.4461 31.4465 34.3036C31.4812 34.0906 31.4629 33.9663 31.5862 33.7004C31.7994 33.7367 32.0303 33.7554 32.2257 33.7739C32.2435 33.7917 32.2792 33.8274 32.3147 33.8275L32.3502 33.8277ZM9.3102 22.2848C9.3102 22.2848 9.2751 22.3912 9.27524 22.4267C8.12069 22.3335 6.73702 22.6832 5.76238 23.1944C5.65542 23.0874 5.54847 22.9804 5.44165 22.909C5.44151 22.8735 5.42354 22.8201 5.44109 22.7669C5.90181 22.5201 6.55931 22.647 6.96627 22.2757C6.91265 22.1867 6.87686 22.1155 6.84107 22.0444L6.85876 22.0267C7.42616 21.8158 8.22612 22.0498 8.81162 21.9277C8.97192 22.0527 9.14991 22.1599 9.3102 22.2848ZM45.3265 41.922C45.3265 41.922 45.2199 41.9216 45.1489 41.9213C45.1674 42.1167 45.4525 42.3664 45.6838 42.4916C46.038 42.2444 46.2867 42.2809 46.748 42.1762C46.748 42.1762 46.7839 42.2828 46.8019 42.3362C46.5718 42.5306 46.3594 42.7074 46.1293 42.9018C45.5073 42.7751 44.8855 42.6839 44.1919 42.4148C44.2438 42.0421 44.2954 41.6339 44.3473 41.2612C44.5768 40.9247 44.9322 40.9971 45.2336 40.874C45.4653 41.1057 45.3609 41.6381 45.3266 41.9575L45.3265 41.922ZM15.4142 25.7356C15.4142 25.7356 15.4678 25.8246 15.4857 25.8425C15.3614 25.8597 15.2191 25.7882 15.0589 25.6987C15.0943 25.6634 15.094 25.5923 15.1471 25.5393C15.2184 25.6106 15.3429 25.6643 15.4319 25.718L15.4142 25.7356ZM15.8951 26.1104C15.8951 26.1104 15.8421 26.1635 15.8067 26.1989C15.7889 26.181 15.7886 26.11 15.7884 26.0745C15.8063 26.0923 15.8596 26.1103 15.8774 26.1281L15.8951 26.1104ZM16.1264 26.2356C16.1264 26.2356 16.0734 26.2887 16.0735 26.3242C15.9487 26.1994 16.0025 26.3239 16.0018 26.1463C16.0375 26.182 16.0908 26.2 16.1441 26.2179L16.1264 26.2356ZM9.9706 23.1575C9.9706 23.1575 9.95319 23.2462 9.93564 23.2994C9.72297 23.4051 8.49891 23.7022 8.58569 23.1876C9.01172 23.1537 9.41993 23.1021 9.84596 23.0682C9.88161 23.1039 9.93495 23.1218 9.98829 23.1398L9.9706 23.1575ZM16.6072 26.5749C16.6072 26.5749 16.5718 26.6102 16.572 26.6458C16.5897 26.6281 16.6073 26.6104 16.6072 26.5749ZM15.1326 26.3738C15.1171 26.9597 14.1827 28.6785 14.8228 28.8941C15.1052 28.469 15.2961 27.3155 15.3829 26.8009C15.6131 26.642 15.7379 26.7668 15.9872 26.9453C15.9902 27.7267 15.4607 28.5414 15.4108 29.4113C15.4998 29.4649 15.5888 29.5185 15.6776 29.5366C15.6776 29.5366 15.731 29.5546 15.7487 29.5369C15.9054 28.7385 16.0622 27.9755 16.2189 27.1771C16.2366 27.1594 16.2721 27.1595 16.3253 27.142C16.4678 27.2491 16.6102 27.3562 16.7704 27.4456C16.8805 28.3694 16.2623 29.2015 16.3366 30.0541C16.355 30.214 16.373 30.2674 16.551 30.3746C16.6219 30.3394 16.7106 30.322 16.7993 30.3045C16.6901 29.6294 16.8461 28.6533 17.1449 27.8554C17.1449 27.8554 17.1982 27.8734 17.2159 27.8557C17.3585 27.9983 17.4833 28.1231 17.7502 28.2485C17.7871 28.6037 17.5575 28.9402 17.488 29.3306C17.384 29.9694 17.4754 30.6623 17.3183 31.3542C17.354 31.3899 17.3896 31.4255 17.4253 31.4612C17.514 31.4438 17.6204 31.4087 17.7091 31.3913C17.7945 30.5215 17.9154 29.6519 18.0008 28.7821L18.0539 28.7291C18.25 28.9252 18.4282 29.1034 18.5888 29.2994C18.1661 30.1856 18.1007 31.6414 18.2464 32.5653L18.3355 32.6544C18.3355 32.6544 18.5305 32.5664 18.6191 32.5135C18.6511 31.6258 18.6831 30.7025 18.7328 29.7971L18.8392 29.762C19.0714 30.1003 19.2858 30.4563 19.518 30.7946C19.4479 31.0429 19.3956 31.2735 19.3255 31.5218C19.2564 32.0188 19.2061 32.7821 19.35 33.2443L19.7236 33.4411L19.9359 33.2289C19.8289 33.1219 19.8467 33.1397 19.6688 33.0325C19.5961 32.6061 19.6829 32.0915 19.7521 31.63L19.8051 31.577C21.2663 32.8967 19.5006 35.4468 19.4543 37.24C18.9755 37.398 18.4067 37.2537 17.9457 37.4295C17.8922 37.376 17.8209 37.3047 17.8028 37.2159C17.7673 37.2157 17.7318 37.2156 17.6785 37.1976C17.5723 37.3037 17.5546 37.3214 17.4666 37.5164C17.4489 37.5341 17.3957 37.5516 17.3602 37.5515C16.9505 37.2125 16.9672 36.9462 16.8059 36.5727L17.1602 36.361C17.1602 36.361 17.1423 36.3077 17.16 36.29C17.0711 36.2719 16.9823 36.2538 16.8934 36.2357C16.445 35.0798 17.7 33.6108 17.908 32.2976C17.9078 32.2621 17.8899 32.2088 17.8897 32.1733C17.2335 32.366 16.5526 35.3643 16.3069 36.1091C16.1829 36.1619 16.0586 36.1792 15.9522 36.2143C15.8987 36.1608 15.8631 36.1251 15.8096 36.0717C15.7724 35.6453 15.6991 35.0413 15.8748 34.5803C15.8392 34.5447 15.8035 34.509 15.7679 34.4734C15.6968 34.4731 15.6258 34.4728 15.5371 34.4902C15.3442 35.111 15.364 35.626 15.3483 36.1764C14.8158 36.2098 14.3524 35.7819 13.7829 35.46C13.8355 35.2649 13.8881 35.1053 13.9406 34.9102C14.1359 34.8932 14.3311 34.8762 14.5087 34.8769C14.5452 35.1256 14.5994 35.3567 14.6537 35.6232C14.6893 35.6589 14.725 35.6945 14.796 35.6948C14.9024 35.6597 14.9733 35.6245 15.0619 35.5716C15.0239 34.9322 15.0214 34.2929 14.9834 33.6535C14.8586 33.5287 14.8054 33.5463 14.6456 33.5634C14.6114 33.8829 14.5949 34.2202 14.5607 34.5397C14.4194 34.7522 14.2949 34.6985 14.0458 34.5555C14.2184 33.2776 15.2785 31.9322 15.3808 30.8317L15.4339 30.7787C15.0074 30.706 14.023 33.2591 14.255 33.5619C14.0954 33.6145 14.0071 33.7385 13.8659 33.951C13.6868 33.5597 13.7563 33.1693 13.7014 32.7607C13.6658 32.725 13.5769 32.7069 13.5413 32.6713C13.117 33.1668 13.4934 34.0739 13.4245 34.6063C12.8037 34.7992 12.0752 34.6721 11.5052 34.2082C11.6102 33.8179 11.7152 33.4277 11.8026 33.0552C11.8912 33.0022 11.9976 32.9671 12.0861 32.9142C12.2474 33.2877 12.0534 33.6243 12.268 34.0158C12.4814 34.0877 12.5878 34.0526 12.7291 33.8756C12.4613 33.5016 12.5491 33.2356 12.8851 32.8996C12.8317 32.8461 12.7428 32.828 12.6716 32.7922C12.6533 32.6323 12.6528 32.5258 12.7943 32.3843C12.8115 32.2245 12.8108 32.0469 12.8279 31.8872C12.7568 31.8514 12.6679 31.8333 12.5612 31.7974C12.3311 31.9918 12.3679 32.3116 12.1919 32.7015C12.1385 32.6836 12.0673 32.6478 11.9963 32.6475C12.0651 32.0795 12.347 31.5124 12.6997 30.8746C12.5927 30.7676 12.5927 30.7676 12.4328 30.7492C12.2739 30.9794 12.098 31.4049 12.0458 31.6711L11.9573 31.7595C11.9573 31.7595 11.9562 31.4754 12.009 31.3513C11.9906 31.1914 12.0086 31.2448 11.8485 31.1553C11.388 31.4732 11.3376 32.201 11.0734 32.7504C10.8071 32.7672 10.665 32.7666 10.4348 32.9255C10.4348 32.9255 10.3991 32.8899 10.3636 32.8897C10.328 32.8541 10.31 32.8007 10.3099 32.7652C10.4514 32.6237 10.5224 32.624 10.682 32.5714C10.6453 32.2516 10.7327 31.9145 10.9797 31.4893C11.1039 31.4721 11.246 31.4726 11.3879 31.4377L11.3876 31.3666L11.2985 31.2775C10.7825 31.0091 12.6329 27.4117 13.3232 26.8284C13.2875 26.7928 13.2874 26.7573 13.2694 26.7039C13.1452 26.7212 13.0387 26.7208 12.9144 26.7381C13.1261 26.3837 13.4089 26.0297 13.4788 25.7459C13.7271 25.6758 14.0827 25.7837 14.4028 25.927C14.4582 26.4777 13.9984 26.9376 13.823 27.5051C13.7002 27.8775 13.2101 29.7224 12.6618 30.2707C12.7331 30.342 12.7512 30.4308 12.787 30.502C12.787 30.502 12.787 30.502 12.8048 30.5198C13.123 30.1304 13.4036 29.2437 13.5437 28.747C13.666 28.2326 14.4411 26.6375 14.8653 26.1419C14.9543 26.1955 15.0612 26.267 15.1502 26.3206L15.1326 26.3738ZM6.3968 21.9539C6.3968 21.9539 6.43245 21.9895 6.45028 22.0073C6.20264 22.255 5.65224 22.2706 5.33303 22.3759C5.17287 22.2865 5.11925 22.1975 4.87024 22.09L4.88793 22.0723C5.31368 21.9674 5.75713 21.8448 6.18302 21.7754C6.25433 21.8468 6.30781 21.9002 6.37911 21.9715L6.3968 21.9539ZM43.9038 41.3838C43.8697 41.7388 43.8356 42.0938 43.7836 42.431L43.7659 42.4487C43.5349 42.3945 43.3212 42.2516 43.0725 42.2151C43.0371 42.2505 43.0194 42.2682 42.984 42.3036C43.1092 42.5349 43.4821 42.5186 43.7666 42.6262C43.7497 42.857 43.7857 42.9637 43.9816 43.1243L44.0708 43.2134C44.0708 43.2134 44.1593 43.1605 44.1948 43.1606C44.3187 43.0368 44.2648 42.8768 44.2464 42.7169C44.7263 42.843 45.2241 42.987 45.6863 43.1309C45.6863 43.1309 45.7041 43.1487 45.722 43.1665C45.3508 43.609 44.8182 43.6425 44.4111 43.9783C44.0916 44.0125 43.7886 43.7095 43.3976 43.6369C43.1133 43.5648 42.829 43.5282 42.5446 43.456C42.4198 43.3313 42.591 41.6983 42.6608 41.3789C42.9803 41.3447 43.3353 41.3105 43.6725 41.2586C43.726 41.3121 43.8326 41.348 43.9038 41.3838ZM8.08794 23.0436C7.91078 23.1495 7.73349 23.2198 7.55633 23.3256C6.8665 24.0155 7.50811 24.6217 6.37234 24.7948C6.37207 24.7238 6.37165 24.6173 6.37138 24.5462C6.65466 24.3343 6.83126 24.0864 7.11427 23.8034L7.11399 23.7323C6.7764 23.6777 6.51039 23.7655 6.10136 23.6041L6.11904 23.5864C6.56221 23.3928 7.0232 23.217 7.44868 23.0411C7.75062 23.06 7.71552 23.1665 7.96371 23.0609C7.98153 23.0787 8.01719 23.1144 8.07039 23.0968L8.08794 23.0436ZM42.2065 43.2594C41.8342 43.4178 41.1404 43.0777 40.7851 43.0408C40.7654 42.5613 40.5858 42.0279 40.7613 41.4958C40.7786 41.3716 40.8318 41.3541 40.9559 41.3013C41.1153 41.2131 41.1688 41.2666 41.2936 41.3914C41.2411 41.5865 41.1884 41.7461 41.1359 41.9412C41.1897 42.0657 41.2255 42.1369 41.4032 42.1731C41.5452 42.1737 41.5097 42.1735 41.6158 42.0674C41.526 41.8007 41.561 41.6588 41.5953 41.3393C41.7727 41.3045 41.9503 41.3052 42.1277 41.2703C42.4491 41.7333 42.1155 42.7086 42.171 43.2593L42.2065 43.2594ZM9.3735 24.8598L9.40915 24.8955C8.68464 25.7982 8.17293 26.6308 7.59103 27.6762C7.25371 27.6926 6.89857 27.6913 6.56125 27.7077L6.54343 27.6899C6.61183 27.0154 7.79637 25.6882 8.3259 24.8735L8.34359 24.8558C8.34359 24.8558 8.21881 24.731 8.14764 24.6952C8.04137 24.7658 7.9528 24.8188 7.8287 24.8715C7.81088 24.8537 7.79305 24.8359 7.77522 24.8181C7.88011 24.3923 7.98596 24.2152 8.34082 24.1455C8.57298 24.4838 8.87561 24.6803 9.37364 24.8953L9.3735 24.8598ZM8.34234 24.5362C8.34234 24.5362 8.3961 24.6607 8.41406 24.714L8.36059 24.6605L8.28983 24.7313C8.28983 24.7313 8.32521 24.6959 8.30738 24.6781C8.32507 24.6604 8.32479 24.5894 8.32466 24.5539L8.34234 24.5362ZM4.25268 23.0997C4.39488 23.1358 4.57259 23.172 4.71478 23.208C4.39764 23.846 4.00727 23.9156 3.36718 23.7L3.34949 23.7177C3.58165 24.056 3.82983 23.9504 4.20321 24.0761C4.20321 24.0761 4.22104 24.094 4.22118 24.1295C3.93873 24.5545 3.6741 24.9974 3.37395 25.4402C2.94806 25.5095 2.45114 25.5786 1.93529 25.3458C1.95173 25.0085 2.74617 23.8219 3.10158 23.8943C3.31232 23.2914 3.66608 22.9376 4.19768 22.6556C4.23375 22.7978 4.25199 22.9221 4.27037 23.082L4.25268 23.0997ZM6.22697 23.942C6.01471 24.1542 5.64175 24.135 5.33967 24.0806L5.30374 23.9739C5.5522 23.9393 5.83618 23.9049 6.08464 23.8704C6.12029 23.906 6.17363 23.924 6.22697 23.942ZM2.67016 22.5431C2.90121 22.5972 3.11457 22.6691 3.34562 22.7233C3.36345 22.7411 3.38127 22.7589 3.3991 22.7768C3.18684 22.989 2.88615 23.2897 2.81623 23.5735C2.58587 23.6969 2.24814 23.6068 1.96389 23.5702C1.9462 23.5879 1.92851 23.6056 1.91082 23.6233C1.91082 23.6233 1.92865 23.6411 1.94647 23.6589C2.14242 23.8195 2.28448 23.8201 2.49757 23.8209C2.49757 23.8209 2.51539 23.8387 2.53322 23.8565C2.14519 24.5298 1.87959 24.7241 1.52736 25.4685C1.81285 25.8247 2.59361 25.6857 3.03788 25.7762L3.05571 25.7941C2.93272 26.131 2.80974 26.4679 2.66893 26.7869C2.75806 26.8761 2.81181 27.0006 2.88325 27.1074C2.95414 27.0722 3.02504 27.0369 3.09593 27.0017C3.07644 26.5577 3.35903 26.1681 3.42854 25.7778C3.87267 25.8328 4.31681 25.8878 4.74326 25.9605C4.7796 26.1737 4.09143 27.2897 3.89672 27.4487C3.5069 27.6603 2.86626 27.3027 2.44037 27.372C2.40513 27.4429 2.4054 27.514 2.37017 27.5848C2.51236 27.6209 3.64895 27.6608 3.70215 27.6433C3.71998 27.6611 3.75563 27.6968 3.80884 27.6792C3.80925 27.7858 3.80939 27.8213 3.73905 27.9986C3.86384 28.1234 3.58152 28.5839 3.35144 28.7784C3.10325 28.8839 2.62333 28.7578 2.32125 28.7033C1.26784 27.2254 1.42068 25.4326 0.988007 23.7617C1.13006 23.7623 1.11238 23.78 1.21947 23.9225C1.41432 23.7989 1.50262 23.675 1.6976 23.5869L1.71529 23.5693C1.71529 23.5693 1.67963 23.5336 1.57323 23.5687C1.53758 23.533 1.50193 23.4974 1.50179 23.4619C1.87268 22.9484 2.11962 22.5232 2.50917 22.2406C2.5451 22.3473 2.61654 22.4541 2.65247 22.5608L2.67016 22.5431ZM44.0032 44.101L44.0035 44.172C43.8795 44.2603 43.7377 44.3308 43.6315 44.4014C43.312 44.4357 42.8319 44.274 42.5119 44.1662C42.5114 44.0596 42.511 43.9531 42.4929 43.8642L42.5102 43.74C42.9364 43.7417 43.3632 43.9209 43.8426 43.905C43.8961 43.9585 43.9496 44.012 44.0209 44.0833L44.0032 44.101ZM6.01637 24.5804C5.91025 24.6865 5.87487 24.7219 5.6973 24.7212C5.78574 24.6328 5.85649 24.562 5.94493 24.4736C5.98058 24.5092 5.99855 24.5626 6.01637 24.5804ZM5.30471 24.2225C5.30471 24.2225 5.3405 24.2936 5.34064 24.3292L5.19913 24.4707C5.19913 24.4707 5.16376 24.506 5.12824 24.5059L5.14565 24.4172C5.14565 24.4172 5.12741 24.2928 5.21585 24.2044C5.23368 24.2222 5.28702 24.2402 5.30485 24.258L5.30471 24.2225ZM7.26283 25.4731C7.26283 25.4731 7.35182 25.5267 7.40516 25.5447C7.17549 25.8456 7.19387 26.0055 6.85752 26.2706C6.46645 26.1625 5.73696 25.7868 5.43599 26.0164C5.32848 25.7674 5.47026 25.6969 5.62917 25.4667C6.16313 25.7884 6.85559 25.7734 7.245 25.4552L7.26283 25.4731ZM36.6035 40.8049C36.7112 41.0894 36.436 43.3967 36.3483 43.6628C36.1353 43.6974 35.9047 43.7498 35.6918 43.7845C35.6561 43.7488 35.6028 43.7309 35.5494 43.7129C35.5308 43.482 35.4944 43.2688 35.4758 43.0379C35.4401 43.0022 35.3868 42.9842 35.3334 42.9663C35.0148 43.2136 35.1581 43.5338 35.1415 43.8356L35.1061 43.871L34.9819 43.8883C34.7128 43.1947 34.9379 41.7218 35.1657 40.9236C35.0407 40.7633 35.0231 40.781 34.8456 40.8158C34.5295 41.7024 34.8517 42.3784 34.5179 43.2827C34.4106 43.1047 34.3389 42.9269 34.285 42.7669C34.2137 42.6956 34.107 42.6596 34.0182 42.6415C33.6645 43.0308 34.0754 43.6539 34.5201 43.851C34.4847 43.8863 34.4493 43.9217 34.4139 43.9571C33.9163 43.8486 33.7388 43.8479 33.4356 43.5094C33.347 43.5623 33.2406 43.5974 33.152 43.6503C33.1164 43.6147 33.0275 43.5966 32.9919 43.5609C32.902 43.2942 32.7401 42.7431 32.7391 42.4945C32.737 41.9618 33.1602 41.1821 32.9098 40.7195C32.8566 40.737 32.8032 40.7191 32.7322 40.7188C32.2376 41.3916 32.5101 42.973 32.192 43.3625C32.0142 43.2907 31.8363 43.219 31.6762 43.1296C31.4797 42.827 31.7625 42.5085 31.4241 42.2408L31.3177 42.2759C31.195 42.6838 31.2312 42.8615 30.9121 43.0023C30.8587 42.9489 30.823 42.9132 30.7518 42.8774C30.5374 42.5214 30.764 41.4392 30.993 40.9606C30.868 40.8003 30.8504 40.818 30.6729 40.8528C30.5508 41.4028 30.3403 42.0768 30.325 42.6982C30.325 42.6982 30.325 42.6982 30.2896 42.7336C30.147 42.591 30.1456 42.2358 30.1626 42.0406L29.9843 41.8623C29.9843 41.8623 29.949 41.8977 29.9313 41.9154C29.737 42.181 29.773 42.3232 29.8095 42.5719C29.7918 42.5896 29.7565 42.625 29.7566 42.6605C29.5611 42.6064 29.401 42.5525 29.2055 42.4985L29.1852 41.8414C29.0958 41.6813 29.0601 41.6456 28.8292 41.627C28.757 41.3071 28.8971 40.8104 29.1089 40.4916C28.984 40.3313 28.9128 40.2955 28.7535 40.4192C28.2758 40.8613 28.4746 41.7676 28.3168 42.282C28.2636 42.2995 28.2104 42.3171 28.1572 42.3346C28.1387 42.1392 28.138 41.9616 28.1373 41.7841C28.0838 41.7306 28.0482 41.6949 27.9947 41.6415C27.4092 41.7635 26.7357 42.0805 26.0779 41.8826C26.0401 41.2787 26.1784 40.3204 26.4955 39.6824C27.2238 39.7385 27.9165 39.7945 28.6447 39.8506C29.55 39.7653 30.5969 39.574 31.574 39.7021C32.7821 39.8489 33.9195 40.1019 35.039 40.3016C35.5012 40.4455 35.9634 40.5893 36.4434 40.7155C36.4612 40.7333 36.4968 40.769 36.5323 40.7691L36.6035 40.8049ZM42.0659 43.6495C42.0659 43.6495 42.1197 43.774 42.1201 43.8806C41.7831 43.968 41.2671 43.6997 40.8761 43.6271C40.8582 43.5738 40.8401 43.4849 40.8043 43.4137C40.7865 43.3959 40.7685 43.3426 40.7683 43.3071C41.0877 43.2373 41.5506 43.5587 41.87 43.4889C41.9235 43.5424 41.9769 43.5959 42.0481 43.6317L42.0659 43.6495ZM5.1317 25.3937C5.1317 25.3937 5.16735 25.4294 5.18518 25.4472C5.11443 25.518 5.07933 25.6244 5.00857 25.6951C4.72515 25.8716 4.04969 25.6914 3.69386 25.5124C3.94108 25.1583 4.1706 24.8218 4.38231 24.4675C4.63187 24.717 4.84634 25.073 5.09619 25.3936L5.1317 25.3937ZM20.9474 33.073L20.9659 33.2684C20.9659 33.2684 20.9127 33.2859 20.8595 33.3035C20.7879 33.1612 20.8058 33.179 20.8586 33.0549C20.8764 33.0727 20.8942 33.0905 20.9297 33.0907L20.9474 33.073ZM43.0817 44.5946C42.9933 44.683 42.8872 44.7891 42.7809 44.8597C42.6922 44.8772 42.639 44.8947 42.5503 44.9121C42.532 44.7878 42.5138 44.6634 42.4956 44.539L42.5132 44.5213C42.5132 44.5213 42.7795 44.5046 42.8861 44.505C42.9396 44.5585 43.0284 44.5766 43.0996 44.6124L43.0817 44.5946ZM42.0865 44.3776C42.1053 44.644 42.1238 44.8394 42.2135 45.0706C41.3984 45.4936 40.406 46.0224 39.2672 45.4143C39.2132 45.2188 39.177 45.041 39.123 44.8455C39.1049 44.7567 39.0872 44.7743 39.1399 44.6502C40.0107 44.8134 40.9357 45.2432 41.6454 45.1039L41.6631 45.0862C41.6631 45.0862 41.6273 45.0151 41.6272 44.9796C41.3606 44.9252 41.201 44.9779 40.969 44.6751C40.8619 44.5327 40.8611 44.3196 40.8604 44.142C40.8958 44.1066 40.9132 44.0179 40.9485 43.9825C41.1974 44.0545 41.464 44.1088 41.7127 44.1453C41.8374 44.2346 41.9797 44.3062 42.1043 44.3954L42.0865 44.3776ZM21.6435 33.9813C21.6435 33.9813 21.6078 33.9457 21.59 33.9278C21.6077 33.9101 21.643 33.8748 21.6429 33.8392C21.6607 33.8571 21.661 33.9281 21.6611 33.9636L21.6435 33.9813ZM40.4681 43.7143C40.487 44.0162 40.4882 44.3359 40.5072 44.6378C40.1874 44.6011 39.8853 44.5466 39.6011 44.51C39.351 44.1184 39.0297 43.691 39.0277 43.1938C39.2943 43.2481 39.5609 43.3024 39.8453 43.3745C40.0234 43.5173 40.2192 43.6423 40.4859 43.7321L40.4681 43.7143ZM6.66337 26.5717C6.66337 26.5717 6.71685 26.6251 6.73481 26.6785C6.55835 26.9619 6.38188 27.2453 6.20556 27.5643C5.58413 27.5796 4.99822 27.5951 4.37679 27.6104C4.37679 27.6104 4.37679 27.6104 4.35896 27.5926C4.4988 27.0249 4.87025 26.6535 5.20549 26.1043C5.6499 26.2303 6.112 26.3387 6.55641 26.4647C6.59207 26.5004 6.62772 26.536 6.66337 26.5717ZM8.35562 27.9455C8.55129 28.0351 8.76507 28.2135 8.78345 28.3734L8.72997 28.3199C8.53457 28.3014 7.98307 28.0329 7.9651 27.9795C8.08933 27.9622 8.23139 27.9628 8.37331 27.9278L8.35562 27.9455ZM12.5918 30.519C12.7165 30.6438 12.6986 30.5904 12.6991 30.7325C12.6278 30.6612 12.5922 30.6255 12.5918 30.519ZM7.34395 28.0659C7.203 28.3494 7.06205 28.633 6.9211 28.9166C6.56609 28.9507 6.21095 28.9493 5.87364 28.9658C5.83729 28.7525 6.17226 28.1323 6.38479 27.9911C6.6327 27.8145 7.02404 27.9936 7.30802 27.9592C7.34367 27.9949 7.36164 28.0482 7.37946 28.066L7.34395 28.0659ZM38.7693 45.2348C38.3792 45.3753 37.4542 44.9455 37.0457 44.9262C37.0097 44.784 36.9736 44.6418 36.973 44.4998C37.4161 44.2706 38.0742 44.5751 38.589 44.5238C38.7673 44.7021 38.7862 45.004 38.787 45.2171L38.7693 45.2348ZM9.07185 29.4754C9.01906 29.5995 8.82504 29.9361 8.70137 30.0954C8.68368 30.1131 8.66599 30.1308 8.6483 30.1485C8.54121 30.006 8.64678 29.7579 8.73481 29.5629C8.84121 29.5278 8.94762 29.4927 9.05402 29.4576L9.08967 29.4932L9.07185 29.4754ZM28.0211 39.2977L27.9857 39.333C27.9857 39.333 27.8969 39.3149 27.8435 39.297C27.8612 39.2793 27.8966 39.2439 27.8965 39.2084C27.9321 39.244 27.9678 39.2797 28.0034 39.3154L28.0211 39.2977ZM5.90528 27.9715C5.74664 28.2727 5.588 28.574 5.44719 28.8931C4.96809 28.98 4.39959 28.9067 3.88443 28.8515C3.86549 28.5495 4.05923 28.1419 4.25325 27.8053C4.71507 27.8426 5.31936 27.987 5.79832 27.8645C5.83397 27.9002 5.86963 27.9358 5.90528 27.9715ZM27.5589 39.1538C27.5589 39.1538 27.4701 39.1712 27.4346 39.1711C27.4523 39.1534 27.4877 39.118 27.4876 39.0825L27.5589 39.1538ZM27.3632 39.0643C27.0267 39.2938 25.4796 38.7018 24.9106 38.522C24.9283 38.5043 24.9637 38.469 24.9636 38.4334C25.7279 38.6317 26.4744 38.8122 27.2387 39.0105C27.2743 39.0462 27.3277 39.0641 27.381 39.0821L27.3632 39.0643ZM8.37911 29.4194C8.41532 29.5971 8.11628 30.324 8.01057 30.5367C8.08187 30.608 8.13535 30.6615 8.20666 30.7328C8.36626 30.6801 8.43715 30.6449 8.63255 30.6634C8.45567 30.8403 8.40206 30.7513 8.24328 31.017L8.11905 31.0343C7.79762 30.5714 7.44068 30.1083 7.10157 29.6631C7.13653 29.5211 7.1538 29.3969 7.18877 29.255C7.56187 29.3097 7.9528 29.3823 8.3436 29.4193L8.37911 29.4194ZM9.10999 30.1503C9.14633 30.3635 8.93463 30.7178 8.86457 30.9662C8.82919 31.0015 8.74048 31.019 8.68727 31.0365C8.66945 31.0187 8.65162 31.0009 8.6338 30.983C8.82767 30.6109 8.82698 30.4333 9.05665 30.1323C9.05665 30.1323 9.05665 30.1323 9.07448 30.1502L9.10999 30.1503ZM39.3399 45.8407C39.3399 45.8407 39.3579 45.8941 39.3758 45.9474C38.809 46.3003 38.045 46.1731 37.4959 46.5438C37.4959 46.5438 37.4603 46.5082 37.4425 46.4903C37.2635 46.1345 37.1198 45.7078 37.1004 45.2993C37.2425 45.2999 37.2957 45.2823 37.4195 45.1585C38.0415 45.2852 38.5048 45.7132 39.0018 45.6441C39.1263 45.6978 39.2331 45.7693 39.3221 45.8229L39.3399 45.8407ZM36.6541 44.6761C36.7255 44.7829 36.7079 44.8006 36.7083 44.9071C36.5487 44.9598 36.1398 44.8339 35.9799 44.8155L35.8908 44.7264L35.9084 44.7087C36.1214 44.674 36.3698 44.6395 36.6005 44.5871C36.6183 44.6049 36.6361 44.6227 36.654 44.6406L36.6541 44.6761ZM11.73 32.6642C11.73 32.6642 11.6771 32.7528 11.6596 32.806C11.5348 32.6812 11.6923 32.0959 11.9222 31.8659C11.9763 32.0614 11.8 32.3804 11.73 32.6642ZM6.78056 29.3067C6.65868 29.9277 6.30534 30.388 6.21883 30.9736C6.00616 31.0793 5.45576 31.0949 5.22388 30.8277C5.02724 30.4895 5.46778 29.6212 5.64397 29.2667C5.92794 29.2323 6.21192 29.1979 6.49589 29.1635C6.58489 29.2171 6.67388 29.2707 6.76273 29.2888L6.78056 29.3067ZM21.7104 37.4797C21.7474 37.8705 21.7142 38.4741 21.5738 38.8997C21.3784 38.8812 21.1297 38.8447 20.9702 38.9328L20.9525 38.9505L21.0421 39.1462C21.0421 39.1462 21.344 39.1651 21.4861 39.1657C21.522 39.2724 21.5221 39.3079 21.4695 39.4675C21.3982 39.3962 21.2915 39.3603 21.2027 39.3421C21.0965 39.4483 21.1496 39.3952 21.0614 39.5547C20.8302 39.465 20.5814 39.393 20.3325 39.321L20.3322 39.25C20.5096 39.2152 20.7049 39.1982 20.8823 39.1633L20.9 39.1456C20.8283 38.9678 20.4555 38.9841 20.2248 39.0365C19.9932 38.8402 19.9746 38.6093 19.6548 38.5726C19.5466 38.146 19.7897 36.7264 20.0724 36.3724C20.6599 36.7475 20.999 37.1928 21.7106 37.5507L21.7104 37.4797ZM9.52331 31.4127C9.52331 31.4127 9.48876 31.6611 9.56021 31.7679C9.61368 31.8214 9.66716 31.8749 9.72064 31.9284C9.93317 31.7871 9.98555 31.5565 9.98472 31.3434C10.0734 31.326 10.1445 31.3263 10.2154 31.291C10.5891 31.5233 10.2552 32.3921 10.15 32.7469C9.84819 32.7634 9.67104 32.8693 9.29765 32.7435C9.0655 32.4053 8.58405 31.8884 8.5115 31.4975C8.4934 31.4086 8.4934 31.4086 8.54605 31.249C8.91957 31.4103 9.13238 31.3401 9.50548 31.3948L9.52331 31.4127ZM26.3004 39.7349C26.1435 40.4978 25.9331 41.1718 25.7938 41.8815C25.2268 42.1989 24.3743 42.1601 23.6994 42.1219C23.5741 41.8551 23.6254 41.3403 23.7483 41.0034C24.2801 40.7569 25.0085 40.8485 25.5943 40.7976C25.6119 40.7799 25.6473 40.7445 25.6472 40.709C25.2905 40.3169 24.3333 40.7394 23.7825 40.6484C23.6743 40.2219 23.8839 39.3348 24.1483 38.8209C24.7885 39.072 25.4287 39.3231 26.0512 39.5919C26.1047 39.6453 26.1936 39.6634 26.2647 39.6992L26.3004 39.7349ZM36.6915 45.1734C36.8174 45.5823 36.9078 45.9911 36.9982 46.3998C36.3582 46.2198 35.7005 46.0219 35.0605 45.8418C34.9885 45.593 34.9685 45.0069 35.0743 44.8297C35.0743 44.8297 35.0565 44.8119 35.0564 44.7764C35.5006 44.8669 35.9271 44.9396 36.3714 45.0301C36.4604 45.0837 36.567 45.1197 36.6739 45.1911L36.6915 45.1734ZM35.6064 44.6542C35.6064 44.6542 35.5533 44.7073 35.5179 44.7427C35.5356 44.725 35.571 44.6896 35.5708 44.6541L35.6065 44.6898L35.6064 44.6542ZM23.69 39.707C23.69 39.707 23.5296 39.5465 23.3342 39.528C22.8906 39.6151 22.4649 39.72 22.039 39.7893C21.9855 39.7358 21.932 39.6824 21.8608 39.6466C21.9134 39.4515 21.9303 39.2562 21.9829 39.0611C22.0893 39.026 22.1957 38.9909 22.3021 38.9558C22.3198 38.9381 22.3018 38.8848 22.3193 38.8316C22.2655 38.6715 22.2124 38.7246 22.088 38.7064C22.016 38.4575 22.2099 38.0853 22.0669 37.8362C22.1023 37.8008 22.1376 37.7654 22.173 37.7301C23.5784 38.3925 23.969 38.3941 23.7431 39.6539L23.69 39.707ZM4.6558 30.861C3.84063 31.284 3.12426 29.7186 2.69629 29.2553C2.67833 29.2019 2.67819 29.1664 2.67805 29.1309C2.891 29.0962 2.99726 29.0256 3.22845 29.1153C3.28248 29.3108 3.22942 29.3639 3.40768 29.5421C3.56715 29.454 3.70824 29.2059 3.72537 29.0462C3.74306 29.0285 4.86252 29.2282 5.12881 29.2115C5.2008 29.4603 4.81499 30.7018 4.62028 30.8609L4.6558 30.861ZM7.33746 30.9602C7.33746 30.9602 7.2844 31.0133 7.28454 31.0488C7.03594 31.0478 6.80516 31.0647 6.55656 31.0637C6.64431 30.7977 6.73192 30.4962 6.81967 30.2302C6.99821 30.4795 7.15892 30.7109 7.33746 30.9602ZM34.5765 44.6502C34.6132 44.97 34.6678 45.3076 34.7222 45.6097C34.7046 45.6274 34.6692 45.6627 34.6338 45.6981C33.9934 45.4115 33.088 45.4613 32.8201 45.0518C32.4271 44.4465 32.9413 44.2532 33.4564 44.3085C33.5277 44.3798 33.5992 44.4866 33.6528 44.5756C33.9014 44.5766 34.2033 44.5955 34.4696 44.5788C34.4875 44.5966 34.5231 44.6323 34.5586 44.6324L34.5765 44.6502ZM7.92711 31.9036C7.87501 32.2053 7.91136 32.4185 7.75286 32.7553C7.30941 32.8778 6.8469 32.663 6.43938 32.8922C6.35039 32.8386 6.22588 32.7848 6.13689 32.7312C6.11768 32.3583 6.34652 31.8442 6.41589 31.4183C6.75307 31.3664 7.07256 31.3321 7.37422 31.28C7.65902 31.4587 7.74857 31.6543 7.90928 31.8858L7.92711 31.9036ZM10.9863 33.194C10.9337 33.3536 10.8988 33.5311 10.8639 33.673C10.8639 33.673 10.8462 33.6907 10.8285 33.7084C10.6509 33.7077 10.4196 33.5825 10.1883 33.4573C10.1702 33.3684 10.1521 33.2796 10.1695 33.1908L10.1872 33.1732C10.4001 33.1385 10.6309 33.1216 10.8438 33.0869C10.8795 33.1226 10.9151 33.1582 10.9508 33.1939L10.9863 33.194ZM19.3671 37.6481C19.3324 37.8611 19.3156 38.0918 19.281 38.3403C19.228 38.3933 19.1929 38.4998 19.1576 38.5706C19.1209 38.2509 19.0841 37.9311 19.1007 37.6293L19.2248 37.5765C19.2248 37.5765 19.3316 37.648 19.3849 37.6659L19.3671 37.6481ZM32.3758 44.9613C32.3758 44.9613 32.2874 45.0497 32.2343 45.1028C31.7545 45.0121 31.2391 44.8858 30.7771 44.813C30.7231 44.6175 30.6869 44.4398 30.6505 44.2265L30.792 44.085C31.2898 44.229 31.7874 44.3375 32.2133 44.2681C32.3561 44.4463 32.3572 44.7304 32.3758 44.9613ZM36.5907 46.6291C36.272 46.8764 35.5617 46.8737 35.1353 46.801C35.0456 46.5698 34.9917 46.4098 35.0084 46.1435C35.0261 46.1258 35.0793 46.1083 35.1148 46.1084C35.5949 46.2701 36.075 46.4318 36.5372 46.5756C36.5372 46.5756 36.5728 46.6113 36.5907 46.6291ZM27.6767 42.0664C27.6767 42.0664 27.6948 42.1552 27.6773 42.2084C27.6063 42.2082 27.5352 42.2079 27.4465 42.2253C27.4287 42.2075 27.393 42.1718 27.3575 42.1717C27.4106 42.1186 27.4992 42.0657 27.5701 42.0305C27.5879 42.0483 27.6235 42.0839 27.6591 42.0841L27.6767 42.0664ZM9.84971 33.1541L9.79665 33.2072C9.79665 33.2072 9.68969 33.1002 9.6007 33.0466C9.58287 33.0288 9.56505 33.0109 9.54722 32.9931C9.5826 32.9577 9.63566 32.9047 9.68872 32.8516C9.81351 32.9764 9.81351 32.9764 9.86726 33.1009L9.84971 33.1541ZM23.3567 40.7533C23.0204 41.0184 22.0263 41.0855 21.6001 41.0839C21.5104 40.8527 21.5979 40.5156 21.7388 40.2321C22.3069 40.1988 22.9108 40.2366 23.3893 40.0077C23.5676 40.1859 23.5335 40.5409 23.3567 40.7533ZM13.7282 35.0869C13.5867 35.2284 13.6398 35.1754 13.6048 35.3173C13.3917 35.3165 13.0355 35.031 12.8575 34.9237C13.0347 34.8179 13.3904 34.9613 13.5679 34.962C13.6214 35.0155 13.6571 35.0511 13.7282 35.0869ZM18.7677 38.7467C18.3404 38.4609 18.0191 38.0335 17.9287 37.6247C18.1595 37.6079 18.4079 37.5733 18.6387 37.5565C18.6758 37.9473 18.7128 38.3381 18.7675 38.7112L18.7677 38.7467ZM16.2547 36.3753C16.22 36.5882 16.2209 36.8013 16.1862 37.0142C16.0086 37.0135 15.7232 36.6928 15.474 36.5143C15.6863 36.3375 15.9533 36.4984 16.1835 36.3395C16.1835 36.3395 16.2192 36.3751 16.237 36.3929L16.2547 36.3753ZM34.6881 45.9647C34.7424 46.2312 34.7789 46.48 34.8509 46.7289C34.8332 46.7465 34.8155 46.7642 34.7978 46.7819C34.2828 46.7622 33.3933 46.3325 32.9308 46.1176C32.8943 45.8689 32.858 45.6557 32.8215 45.4069L32.8392 45.3893C33.3902 45.5512 33.9413 45.7132 34.5101 45.8574L34.6703 45.9468L34.6881 45.9647ZM8.51606 32.6695C8.40994 32.7756 8.32108 32.7575 8.17903 32.7569C8.1612 32.7391 8.14337 32.7213 8.12555 32.7035L8.23098 32.4198C8.32012 32.5089 8.40925 32.598 8.5162 32.705L8.51606 32.6695ZM6.04292 31.3991C5.93804 31.8249 5.85098 32.2684 5.76392 32.712C5.58649 32.7468 5.4092 32.8172 5.21408 32.8697C4.9102 32.3536 4.60646 31.8729 4.32041 31.3746C4.32028 31.3391 4.30231 31.2858 4.30217 31.2503C4.72807 31.1809 5.15493 31.3601 5.52707 31.1663C5.68723 31.2557 5.86507 31.3274 6.04306 31.4346L6.04292 31.3991ZM30.2944 43.9766C30.3673 44.4385 30.565 45.0608 30.4072 45.5751C29.8206 45.413 29.2338 45.2154 28.6833 45.1955C28.6652 45.1067 28.647 44.9823 28.6465 44.8757C29.0897 44.6821 29.7648 44.7558 30.2083 44.6687L30.2437 44.6334C30.2437 44.6334 30.1902 44.5799 30.1724 44.5621C29.6212 44.3646 29.1605 44.6114 28.6631 44.5739C28.6616 44.1833 28.6424 43.8103 28.6409 43.4197C28.8714 43.3318 29.2095 43.5284 29.4759 43.5472C29.7606 43.6904 30.0275 43.8157 30.2766 43.9587L30.2944 43.9766ZM9.63981 33.9701C9.58785 34.3073 9.41097 34.4841 9.41235 34.8393C8.91585 35.0149 8.20487 34.8346 7.63678 34.8679L7.56548 34.7966C7.70546 34.2644 7.86299 33.6791 8.03835 33.1115C8.28654 33.0059 8.4999 33.0778 8.76605 33.0256C9.06909 33.3286 9.35445 33.6494 9.65763 33.9879L9.63981 33.9701ZM16.6311 37.2823C16.6311 37.2823 16.7024 37.3536 16.6849 37.4068C16.6849 37.4068 16.6495 37.4422 16.6318 37.4599C16.614 37.4421 16.5783 37.4064 16.5428 37.4063C16.5427 37.3708 16.5247 37.3174 16.5423 37.2642L16.5953 37.2112C16.5953 37.2112 16.6488 37.2646 16.6666 37.2825L16.6311 37.2823ZM32.4665 45.4411C32.485 45.6365 32.5213 45.8497 32.5575 46.0274C32.3091 46.062 30.9938 45.7372 30.8689 45.5769C30.8328 45.4347 30.7969 45.328 30.7608 45.1858C30.7962 45.1505 30.8137 45.0973 30.8313 45.0441C31.2752 45.028 31.6665 45.2071 32.1283 45.2444C32.2528 45.2982 32.3596 45.3696 32.4663 45.4056L32.4665 45.4411ZM28.2548 44.5901C27.723 44.8366 26.7636 44.6908 26.1597 44.653C26.0166 44.3683 25.9256 43.8175 26.0485 43.4451C26.6688 43.1456 27.575 43.309 28.1786 43.2758C28.3928 43.5608 28.3423 44.2531 28.237 44.5723L28.2548 44.5901ZM17.5922 37.8543L17.6105 37.9786L17.5041 38.0137C17.5041 38.0137 17.4328 37.9424 17.3971 37.9068C17.4325 37.8714 17.4679 37.836 17.5032 37.8007C17.5211 37.8185 17.5567 37.8541 17.5922 37.8543ZM13.3406 35.8667C13.3406 35.8667 13.3414 36.0798 13.3242 36.204C12.9153 36.0781 12.5763 35.6684 12.1492 35.4182C12.149 35.3826 12.1311 35.3293 12.1486 35.2761C12.184 35.2407 12.255 35.241 12.3082 35.2235C12.6642 35.4379 13.0023 35.6346 13.3583 35.849L13.3406 35.8667ZM13.9988 36.1711C13.875 36.295 13.8572 36.2771 13.6793 36.2054C13.7147 36.17 13.7499 36.0992 13.7675 36.0459C13.8386 36.0817 13.9276 36.1354 13.9988 36.1711ZM19.1764 38.8371L19.088 38.9255C19.088 38.9255 19.141 38.8724 19.1409 38.8369L19.1764 38.8371ZM26.6493 42.7016C26.5617 43.0032 26.4378 43.0915 26.1719 43.2147C26.1541 43.1969 26.1184 43.1612 26.0829 43.1611C26.0822 42.9835 26.0992 42.7883 26.0985 42.6107L26.1162 42.593C26.1162 42.593 26.436 42.6298 26.5782 42.6658C26.596 42.6837 26.6138 42.7015 26.6316 42.7193L26.6493 42.7016ZM7.28123 34.76C7.15714 34.8127 7.08624 34.848 7.03332 34.9366C6.51802 34.8458 6.10635 34.0096 5.74983 33.6531C5.83799 33.4936 6.13952 33.406 6.22685 33.0334C6.52824 32.9103 7.16791 33.0194 7.55815 32.9143C7.84351 33.2351 7.36801 34.2453 7.24571 34.7598L7.28123 34.76ZM23.2735 42.1913C22.8125 42.3671 22.0849 42.453 21.5878 42.4866C21.5154 42.1312 21.4427 41.7047 21.6009 41.297C22.0265 41.1566 22.7897 41.0707 23.2512 41.0015C23.4829 41.2332 23.2901 41.8895 23.2914 42.2091L23.2735 42.1913ZM15.8156 37.5988C15.3186 37.6679 14.2323 36.8646 13.7874 36.5965L13.8578 36.4547C14.0889 36.5089 14.1954 36.5093 14.3904 36.4213C14.8891 36.8139 15.37 37.1886 15.8509 37.5634L15.8156 37.5988ZM10.7676 36.3006C10.5017 36.4239 9.91577 36.4394 9.59573 36.3316C9.56036 36.3669 9.50715 36.3845 9.48947 36.4022C9.48974 36.4732 9.49016 36.5798 9.49043 36.6508C10.0059 36.7771 10.3245 36.5297 10.7865 36.6026C10.8582 36.7804 10.9476 36.9406 10.8774 37.1534C11.02 37.296 11.0022 37.2782 11.1973 37.2256C11.2142 36.9949 11.1957 36.7995 11.1416 36.6039C11.1593 36.5863 11.159 36.5152 11.1589 36.4797C11.6561 36.4816 12.7029 36.2549 13.1668 36.8249C13.3099 37.1096 13.0269 37.3926 13.2765 37.6422C13.2237 37.7662 13.1886 37.8726 13.1358 37.9967C12.905 38.0136 12.692 38.0128 12.479 38.0475C12.4436 38.0828 12.4083 38.1182 12.3729 38.1536C12.4085 38.1892 12.4266 38.2781 12.4623 38.3137C12.7108 38.2792 12.8347 38.1909 13.1371 38.3164C13.1911 38.5119 13.2273 38.6896 13.2636 38.9028C13.4058 38.9389 13.548 38.975 13.6724 38.9932C13.7433 38.958 13.8143 38.9582 13.8852 38.923L13.9557 38.7812C13.9557 38.7812 13.9379 38.7634 13.92 38.7456C13.7957 38.7273 13.6536 38.7268 13.5292 38.7085C13.511 38.5842 13.4926 38.4243 13.4744 38.2999C13.5098 38.2645 13.5273 38.2113 13.5449 38.1581C14.4686 38.2683 14.9288 37.8794 16.0676 38.4876C16.0686 38.7362 16.034 38.9846 16.035 39.2332C15.4498 39.4263 14.7033 39.2458 14.1182 39.4744L14.1005 39.4921C14.1005 39.4921 14.1186 39.5809 14.2256 39.6879C14.8825 39.6727 15.3615 39.5502 15.9832 39.6059C16.0727 39.8016 16.0908 39.8905 16.074 40.1212C16.1632 40.2459 16.1634 40.2814 16.3592 40.4065C16.3946 40.3711 16.4833 40.3537 16.5187 40.3183C16.4645 40.0872 16.4283 39.9095 16.3918 39.6608C16.4272 39.6254 16.4447 39.5722 16.4623 39.519C16.8883 39.4852 17.42 39.2386 17.8468 39.3824L17.9352 39.2939C17.4369 39.0079 16.9763 39.2902 16.4613 39.2704C16.3718 39.0747 16.4066 38.8973 16.4411 38.6489C17.133 38.4917 18.3087 39.4552 19.0907 39.6358C19.323 40.0096 19.433 40.8979 19.2219 41.3942C16.6126 41.6504 12.4119 39.0416 10.1319 37.2215C9.50854 36.7396 7.94356 36.1298 7.60403 35.578C7.51463 35.4179 7.65585 35.2053 7.69081 35.0634C8.32952 34.9239 9.05804 35.051 9.6452 35.3551C9.75133 35.249 9.76902 35.2313 9.82166 35.0717C10.0524 35.0549 10.3187 35.0381 10.5673 35.0391C10.5849 34.9859 10.6024 34.9327 10.6023 34.8972C10.3537 34.8962 10.1049 34.8597 9.85635 34.8588C9.7668 34.6631 9.85455 34.3971 10.0316 34.2557C10.9395 34.8452 11.0124 35.3427 10.8208 36.2831L10.7676 36.3006ZM25.618 42.3425C25.6546 42.6267 25.6913 42.911 25.6037 43.2125C25.1783 43.4239 24.1662 43.4378 23.6866 43.3826C23.5612 43.1158 23.6312 42.8319 23.6122 42.53C23.8071 42.4065 23.9842 42.3006 24.2508 42.3549C24.2862 42.3195 24.3036 42.2308 24.339 42.1954C24.926 42.4641 25.0487 42.0562 25.618 42.3425ZM33.7683 46.8844C33.5374 46.8658 33.271 46.847 33.0224 46.846C33.0578 46.8107 33.1108 46.7576 33.1639 46.7045C33.3592 46.6875 33.5367 46.6882 33.7321 46.7067C33.8036 46.8136 33.7678 46.7424 33.7506 46.9021L33.7683 46.8844ZM21.2425 40.4432C21.2434 40.6918 21.2267 40.9581 21.2277 41.2067C20.7312 41.3823 20.1089 41.1846 19.6481 41.3959C19.6481 41.3959 19.6124 41.3602 19.5946 41.3424C19.5573 40.8806 19.5199 40.4188 19.4826 39.9569L19.5534 39.8862C20.0511 40.0302 20.5844 40.1743 21.0822 40.3183C21.1178 40.354 21.189 40.3898 21.2423 40.4077L21.2425 40.4432ZM32.8979 46.7923L32.9335 46.8279C32.2944 46.861 31.6552 46.8585 31.0336 46.8383C30.9616 46.5894 30.9251 46.3407 30.8708 46.0741L30.8349 45.9674C31.3148 46.0936 31.8124 46.2021 32.2745 46.3104C32.5948 46.4892 32.6489 46.6848 32.8978 46.7568L32.8979 46.7923ZM12.0457 36.1991C12.0457 36.1991 12.0813 36.2347 12.1168 36.2348C12.0991 36.2525 12.0638 36.2879 12.0639 36.3234C11.7621 36.34 11.5315 36.3924 11.1937 36.3023C11.1396 36.0712 11.1738 35.7517 11.3329 35.557C11.5646 35.7888 11.8317 35.9851 12.0812 36.1992L12.0457 36.1991ZM30.6963 46.8547C30.2881 46.9064 29.8082 46.7802 29.3461 46.6719L29.2748 46.6006C29.5754 46.2999 29.9675 46.6566 30.357 46.374C30.357 46.374 30.3927 46.4096 30.4105 46.4275C30.3926 46.3741 30.3924 46.3386 30.41 46.2854C30.0367 46.1952 29.2555 46.2276 28.883 46.315C28.8473 46.2793 28.794 46.2613 28.7407 46.2434C28.704 45.9591 28.6676 45.7104 28.6309 45.4261C28.968 45.3387 29.8211 45.5551 30.0529 45.7868C30.0883 45.7514 30.177 45.734 30.2302 45.7165C30.6041 45.9843 30.6062 46.517 30.6609 46.8901L30.6963 46.8547ZM14.6448 37.9138C14.3787 37.9661 14.1476 37.9119 13.8637 37.9463C13.1183 38.0499 13.6673 37.6792 13.3993 37.2697C13.5055 37.1636 13.4701 37.199 13.5942 37.1462C13.9322 37.3073 14.5905 37.6473 14.6448 37.9138ZM5.64149 33.191C5.64149 33.191 5.58857 33.2796 5.57102 33.3328L5.4823 33.3502C5.44623 33.208 5.44637 33.2435 5.51685 33.1017C5.5525 33.1374 5.58815 33.173 5.6238 33.2087L5.64149 33.191ZM25.7155 44.5625C25.7155 44.5625 25.6625 44.651 25.645 44.7043C25.3786 44.6855 25.2717 44.614 25.0954 44.9329L25.1311 44.9686C25.3265 44.9871 25.5751 44.9881 25.7881 44.9889C25.8245 45.2021 25.8787 45.4332 26.0391 45.5936C26.0569 45.6114 26.0572 45.6825 26.0573 45.718C25.6493 45.8052 25.1854 45.2352 24.6875 45.0557C23.5495 44.6606 22.0716 43.6072 21.1101 42.9287C21.3931 42.6457 21.4655 43.0011 21.7676 43.0555C21.9096 43.0561 21.9273 43.0384 22.0334 42.9323L22.0511 42.9146C21.9087 42.8075 21.891 42.8252 21.7133 42.789C22.0141 42.5238 22.6891 42.5974 23.0617 42.5101C23.0974 42.5458 23.1507 42.5637 23.204 42.5817C23.223 42.8836 23.3668 43.3459 23.0838 43.6289C23.2442 43.7893 23.4048 43.9853 23.5476 44.1634C23.6719 44.1816 23.7962 44.1643 23.9205 44.1826C23.9382 44.1649 23.9736 44.1295 24.009 44.0941C24.0267 44.0765 24.0442 44.0233 24.0441 43.9877C23.9552 43.9696 23.8309 43.9514 23.7242 43.9155C23.6699 43.6489 25.1257 43.5835 25.4807 43.5494C25.6595 43.8697 25.5011 44.242 25.6444 44.5622L25.7155 44.5625ZM28.2562 44.9453C28.2562 44.9453 28.1854 45.016 28.1322 45.0336C28.1322 45.0336 28.1144 45.0157 28.0966 44.9979C28.1319 44.9625 28.1495 44.9093 28.167 44.8561C28.1849 44.8739 28.2205 44.9096 28.256 44.9097L28.2562 44.9453ZM21.1935 41.5617C21.1414 41.8634 21.1428 42.2185 21.2502 42.432C21.091 42.5912 21.073 42.5379 21.0384 42.7508C21.0207 42.7685 19.0642 41.9441 18.8152 41.8366L18.8149 41.7655C19.0631 41.66 19.2056 41.7671 19.4904 41.9457C19.9854 41.3794 20.4301 41.5765 21.0689 41.4724C21.1045 41.5081 21.1402 41.5438 21.1759 41.5794L21.1935 41.5617ZM28.4213 46.3132C27.4631 46.487 26.5377 45.9507 26.1619 45.2212C26.1795 45.168 26.1792 45.097 26.2145 45.0261C26.977 44.7627 27.4225 45.1728 28.2041 45.2469C28.3649 45.5139 28.4378 45.9759 28.439 46.2955L28.4213 46.3132Z" fill="black"/>
</svg>
