<svg width="51" height="50" viewBox="0 0 51 50" fill="none" xmlns="http://www.w3.org/2000/svg">
<mask id="path-1-inside-1_404_2574" fill="white">
<path d="M25.3323 50C23.0297 50 20.7272 49.4068 18.6727 48.2218L6.9926 41.4779C2.88508 39.1064 0.333008 34.6847 0.333008 29.9417V16.451C0.333008 11.7065 2.88508 7.28631 6.9926 4.91482C12.5599 1.69904 18.9013 0 25.3323 0C31.7632 0 38.1046 1.69904 43.6734 4.91482C47.7809 7.28631 50.333 11.7065 50.333 16.451V29.9402C50.333 34.6847 47.7809 39.1049 43.6734 41.4764L31.9934 48.2203C29.9388 49.4068 27.6363 49.9985 25.3338 49.9985L25.3323 50ZM25.3323 0.597729C19.0074 0.597729 12.7691 2.26987 7.28995 5.43186C3.36621 7.69725 0.929189 11.9202 0.929189 16.451V29.9402C0.929189 34.471 3.36621 38.694 7.28995 40.9594L18.97 47.7032C22.8937 49.9686 27.7678 49.9686 31.6915 47.7032L43.3716 40.9594C47.2953 38.694 49.7323 34.471 49.7323 29.9402V16.451C49.7323 11.9202 47.2953 7.69725 43.3716 5.43186C37.8939 2.26838 31.6557 0.597729 25.3293 0.597729H25.3323Z"/>
</mask>
<path d="M25.3323 50V50.8487H25.6843L25.933 50.5996L25.3323 50ZM18.6727 48.2218L18.2483 48.9568L18.2486 48.957L18.6727 48.2218ZM6.9926 41.4779L7.41699 40.7429L7.41697 40.7429L6.9926 41.4779ZM6.9926 4.91482L7.41697 5.64985L7.41712 5.64977L6.9926 4.91482ZM43.6734 4.91482L43.249 5.64982L43.249 5.64985L43.6734 4.91482ZM43.6734 41.4764L43.249 40.7414L43.249 40.7414L43.6734 41.4764ZM31.9934 48.2203L31.569 47.4852L31.5689 47.4853L31.9934 48.2203ZM25.3338 49.9985V49.1498H24.9817L24.733 49.399L25.3338 49.9985ZM7.28995 5.43186L6.86572 4.69675L6.86557 4.69683L7.28995 5.43186ZM7.28995 40.9594L7.71433 40.2243L7.71432 40.2243L7.28995 40.9594ZM18.97 47.7032L18.5456 48.4382L18.5456 48.4383L18.97 47.7032ZM31.6915 47.7032L32.1159 48.4383L32.1159 48.4382L31.6915 47.7032ZM43.3716 40.9594L42.9472 40.2243L42.9472 40.2243L43.3716 40.9594ZM43.3716 5.43186L42.9471 6.16683L42.9472 6.16689L43.3716 5.43186ZM25.3323 49.1513C23.1752 49.1513 21.0194 48.5955 19.0967 47.4865L18.2486 48.957C20.435 50.218 22.8843 50.8487 25.3323 50.8487V49.1513ZM19.0971 47.4867L7.41699 40.7429L6.56821 42.2129L18.2483 48.9568L19.0971 47.4867ZM7.41697 40.7429C3.57214 38.523 1.18175 34.3816 1.18175 29.9417H-0.515732C-0.515732 34.9878 2.19802 39.6898 6.56823 42.2129L7.41697 40.7429ZM1.18175 29.9417V16.451H-0.515732V29.9417H1.18175ZM1.18175 16.451C1.18175 12.0097 3.57209 7.86971 7.41697 5.64985L6.56823 4.17979C2.19807 6.70292 -0.515732 11.4033 -0.515732 16.451H1.18175ZM7.41712 5.64977C12.8553 2.50858 19.0502 0.84874 25.3323 0.84874V-0.84874C18.7523 -0.84874 12.2646 0.889506 6.56809 4.17988L7.41712 5.64977ZM25.3323 0.84874C31.6143 0.84874 37.8092 2.50857 43.249 5.64982L44.0978 4.17983C38.3999 0.889514 31.9122 -0.84874 25.3323 -0.84874V0.84874ZM43.249 5.64985C47.0939 7.86971 49.4843 12.0097 49.4843 16.451H51.1817C51.1817 11.4033 48.4679 6.70292 44.0978 4.17979L43.249 5.64985ZM49.4843 16.451V29.9402H51.1817V16.451H49.4843ZM49.4843 29.9402C49.4843 34.3815 47.0939 38.5215 43.249 40.7414L44.0978 42.2114C48.4679 39.6883 51.1817 34.9879 51.1817 29.9402H49.4843ZM43.249 40.7414L31.569 47.4852L32.4177 48.9553L44.0978 42.2114L43.249 40.7414ZM31.5689 47.4853C29.6468 48.5953 27.4912 49.1498 25.3338 49.1498V50.8472C27.7814 50.8472 30.2309 50.2182 32.4178 48.9552L31.5689 47.4853ZM24.733 49.399L24.7315 49.4004L25.933 50.5996L25.9345 50.5981L24.733 49.399ZM25.3323 -0.251011C18.8583 -0.251011 12.4738 1.46039 6.86572 4.69675L7.71417 6.16697C13.0645 3.07936 19.1564 1.44647 25.3323 1.44647V-0.251011ZM6.86557 4.69683C2.67911 7.11391 0.0804491 11.6171 0.0804491 16.451H1.77793C1.77793 12.2233 4.0533 8.28059 7.71432 6.16689L6.86557 4.69683ZM0.0804491 16.451V29.9402H1.77793V16.451H0.0804491ZM0.0804491 29.9402C0.0804491 34.7741 2.67911 39.2773 6.86557 41.6944L7.71432 40.2243C4.0533 38.1106 1.77793 34.1679 1.77793 29.9402H0.0804491ZM6.86556 41.6944L18.5456 48.4382L19.3944 46.9682L7.71433 40.2243L6.86556 41.6944ZM18.5456 48.4383C22.732 50.8553 27.9296 50.8553 32.1159 48.4383L31.2672 46.9682C27.606 49.082 23.0555 49.082 19.3944 46.9682L18.5456 48.4383ZM32.1159 48.4382L43.796 41.6944L42.9472 40.2243L31.2671 46.9682L32.1159 48.4382ZM43.796 41.6944C47.9824 39.2773 50.5811 34.7741 50.5811 29.9402H48.8836C48.8836 34.1679 46.6082 38.1106 42.9472 40.2243L43.796 41.6944ZM50.5811 29.9402V16.451H48.8836V29.9402H50.5811ZM50.5811 16.451C50.5811 11.6171 47.9824 7.11391 43.796 4.69683L42.9472 6.16689C46.6082 8.28059 48.8836 12.2233 48.8836 16.451H50.5811ZM43.796 4.69688C38.1892 1.45881 31.8046 -0.251011 25.3293 -0.251011V1.44647C31.5068 1.44647 37.5986 3.07795 42.9471 6.16683L43.796 4.69688ZM25.3293 1.44647H25.3323V-0.251011H25.3293V1.44647Z" fill="#EC4E20" mask="url(#path-1-inside-1_404_2574)"/>
<path fill-rule="evenodd" clip-rule="evenodd" d="M32.092 20.3671C32.7838 21.0815 32.7838 22.216 32.092 22.9304L25.2769 29.9689C24.7308 30.5329 23.8263 30.5329 23.2802 29.9689L19.574 26.1412C18.8822 25.4267 18.8822 24.2923 19.574 23.5778C20.298 22.8301 21.4973 22.8301 22.2213 23.5778L24.2786 25.7025L29.4447 20.3671C30.1687 19.6193 31.368 19.6193 32.092 20.3671Z" fill="#EC4E20"/>
</svg>
