<svg width="30" height="30" viewBox="0 0 30 30" fill="none" xmlns="http://www.w3.org/2000/svg">
<g clip-path="url(#clip0_157_2397)">
<path d="M23.4454 18.4752C22.8499 17.8551 22.1315 17.5235 21.3702 17.5235C20.615 17.5235 19.8905 17.8489 19.2703 18.469L17.3301 20.4031C17.1705 20.3171 17.0109 20.2373 16.8574 20.1575C16.6363 20.047 16.4276 19.9426 16.2495 19.8321C14.4321 18.6778 12.7805 17.1735 11.1964 15.2272C10.429 14.2571 9.91322 13.4405 9.53869 12.6116C10.0422 12.1512 10.5088 11.6722 10.9631 11.2118C11.135 11.0398 11.307 10.8618 11.4789 10.6899C12.7682 9.40051 12.7682 7.73048 11.4789 6.44111L9.8027 4.76493C9.61237 4.5746 9.41589 4.37813 9.2317 4.18165C8.86331 3.80098 8.4765 3.40803 8.07741 3.03964C7.48184 2.45022 6.76962 2.13708 6.02056 2.13708C5.2715 2.13708 4.547 2.45022 3.93302 3.03964C3.92688 3.04578 3.92688 3.04578 3.92074 3.05192L1.83319 5.15788C1.0473 5.94378 0.599088 6.9016 0.50085 8.01291C0.353494 9.80574 0.88152 11.4758 1.28675 12.5687C2.2814 15.2518 3.76724 17.7384 5.98372 20.4031C8.67297 23.6142 11.9087 26.15 15.6048 27.9367C17.017 28.6059 18.9019 29.398 21.0079 29.533C21.1368 29.5392 21.2719 29.5453 21.3947 29.5453C22.813 29.5453 24.0041 29.0357 24.9374 28.0226C24.9435 28.0104 24.9558 28.0042 24.962 27.9919C25.2812 27.6051 25.6496 27.2552 26.0364 26.8806C26.3004 26.6289 26.5706 26.3649 26.8346 26.0886C27.4424 25.4562 27.7617 24.7194 27.7617 23.9642C27.7617 23.2029 27.4363 22.4722 26.8162 21.8582L23.4454 18.4752ZM25.6435 24.9404C25.6373 24.9404 25.6373 24.9466 25.6435 24.9404C25.404 25.1983 25.1584 25.4316 24.8944 25.6895C24.4953 26.0702 24.0901 26.4693 23.7094 26.9175C23.0893 27.5806 22.3587 27.8937 21.4009 27.8937C21.3088 27.8937 21.2105 27.8937 21.1184 27.8876C19.2949 27.7709 17.6003 27.0587 16.3293 26.4508C12.8542 24.7685 9.8027 22.3801 7.26695 19.3532C5.17327 16.8297 3.77338 14.4966 2.84627 11.9915C2.27526 10.4627 2.06651 9.27157 2.15861 8.14798C2.22 7.42962 2.4963 6.83406 3.0059 6.32445L5.09959 4.23077C5.40044 3.94834 5.71971 3.79484 6.03284 3.79484C6.41965 3.79484 6.73278 4.02815 6.92926 4.22463C6.9354 4.23077 6.94154 4.23691 6.94768 4.24305C7.32221 4.59302 7.67832 4.95527 8.05285 5.34208C8.24318 5.53855 8.43966 5.73503 8.63613 5.93764L10.3123 7.61382C10.9631 8.26464 10.9631 8.86634 10.3123 9.51717C10.1343 9.69522 9.96234 9.87328 9.78428 10.0452C9.26854 10.5732 8.77735 11.0644 8.24318 11.5433C8.2309 11.5556 8.21862 11.5617 8.21248 11.574C7.68446 12.102 7.7827 12.6178 7.89321 12.9678C7.89935 12.9862 7.90549 13.0046 7.91163 13.023C8.34756 14.0791 8.96154 15.0737 9.8948 16.2587L9.90094 16.2648C11.5955 18.3524 13.3822 19.9794 15.3531 21.2258C15.6048 21.3855 15.8627 21.5144 16.1083 21.6372C16.3293 21.7477 16.5381 21.8521 16.7162 21.9626C16.7407 21.9749 16.7653 21.9933 16.7898 22.0056C16.9986 22.11 17.1951 22.1591 17.3977 22.1591C17.9073 22.1591 18.2266 21.8398 18.3309 21.7354L20.4308 19.6356C20.6395 19.4269 20.9711 19.1751 21.3579 19.1751C21.7385 19.1751 22.0517 19.4146 22.242 19.6233C22.2481 19.6295 22.2481 19.6295 22.2543 19.6356L25.6373 23.0187C26.2697 23.6449 26.2697 24.2896 25.6435 24.9404Z" fill="#391F1E"/>
<path d="M16.1757 7.3744C17.7843 7.64455 19.2456 8.40589 20.4122 9.57246C21.5787 10.739 22.3339 12.2003 22.6102 13.8089C22.6778 14.2142 23.0277 14.4966 23.4268 14.4966C23.4759 14.4966 23.5189 14.4905 23.568 14.4843C24.0224 14.4106 24.3232 13.9809 24.2496 13.5265C23.918 11.5802 22.997 9.80577 21.591 8.39975C20.185 6.99373 18.4106 6.07275 16.4643 5.7412C16.0099 5.66752 15.5863 5.96837 15.5064 6.41658C15.4266 6.86479 15.7213 7.30072 16.1757 7.3744Z" fill="#391F1E"/>
<path d="M29.512 13.2871C28.9655 10.0821 27.4551 7.16567 25.1343 4.84481C22.8134 2.52395 19.897 1.01355 16.692 0.467104C16.2438 0.387287 15.8202 0.694278 15.7403 1.14249C15.6667 1.59683 15.9675 2.02048 16.4219 2.1003C19.283 2.58535 21.8925 3.94225 23.9677 6.01138C26.043 8.08664 27.3937 10.6961 27.8788 13.5572C27.9463 13.9625 28.2963 14.2449 28.6954 14.2449C28.7445 14.2449 28.7875 14.2388 28.8366 14.2326C29.2848 14.1651 29.5918 13.7353 29.512 13.2871Z" fill="#391F1E"/>
</g>
<defs>
<clipPath id="clip0_157_2397">
<rect width="29.0909" height="29.0909" fill="white" transform="translate(0.454346 0.454468)"/>
</clipPath>
</defs>
</svg>
