<svg width="199" height="182" viewBox="0 0 199 182" fill="none" xmlns="http://www.w3.org/2000/svg">
<path d="M47.4364 181.615C32.4336 181.615 20.8282 177.41 12.6204 169C4.47979 160.59 0.409509 148.481 0.409509 132.67V52.5429C0.409509 35.8581 4.27796 23.0754 12.0149 14.1948C19.819 5.24688 31.6262 0.772936 47.4364 0.772936C63.3139 0.772936 75.1211 5.24688 82.858 14.1948C90.5949 23.0754 94.4634 35.8581 94.4634 52.5429V132.67C94.4634 148.481 90.3931 160.59 82.2525 169C74.1119 177.41 62.5066 181.615 47.4364 181.615ZM47.4364 148.918C50.1948 148.918 52.3477 147.673 53.8951 145.184C55.4424 142.695 56.2161 139.903 56.2161 136.808V49.1118C56.2161 44.9406 55.7452 41.3076 54.8033 38.2128C53.9287 35.0508 51.4731 33.4698 47.4364 33.4698C43.3998 33.4698 40.9105 35.0508 39.9686 38.2128C39.094 41.3076 38.6567 44.9406 38.6567 49.1118V136.808C38.6567 139.903 39.4304 142.695 40.9778 145.184C42.5925 147.673 44.7453 148.918 47.4364 148.918ZM104.757 180V171.523C104.757 162.71 106.102 154.805 108.793 147.808C111.552 140.744 115.084 134.218 119.39 128.23C123.695 122.175 128.237 116.255 133.013 110.469C137.655 104.817 142.062 99.0316 146.233 93.1112C150.472 87.1235 153.903 80.6649 156.527 73.7353C159.218 66.7385 160.563 58.9006 160.563 50.2218C160.563 46.0506 159.924 42.4849 158.646 39.5247C157.435 36.4972 154.878 34.9835 150.976 34.9835C145.056 34.9835 142.096 40.2648 142.096 50.8273V72.5243H104.757C104.69 70.9769 104.589 69.2277 104.454 67.2767C104.387 65.3256 104.353 63.4419 104.353 61.6254C104.353 48.8427 105.699 38.011 108.39 29.1304C111.081 20.1825 115.824 13.3875 122.619 8.74531C129.481 4.03589 139.102 1.68118 151.481 1.68118C166.215 1.68118 177.652 5.81874 185.792 14.0939C194 22.369 198.104 34.1762 198.104 49.5154C198.104 59.9434 196.759 69.0932 194.068 76.9646C191.376 84.7688 187.811 91.9002 183.37 98.3588C178.93 104.75 174.053 111.142 168.738 117.533C164.97 122.04 161.303 126.649 157.738 131.358C154.239 136.068 151.145 141.114 148.453 146.496H196.893V180H104.757Z" fill="white"/>
</svg>
