<svg width="199" height="182" viewBox="0 0 199 182" fill="none" xmlns="http://www.w3.org/2000/svg">
<path d="M47.4364 181.615C32.4336 181.615 20.8282 177.41 12.6204 169C4.47979 160.59 0.409509 148.481 0.409509 132.67V52.5429C0.409509 35.8581 4.27796 23.0754 12.0149 14.1948C19.819 5.24688 31.6262 0.772936 47.4364 0.772936C63.3139 0.772936 75.1211 5.24688 82.858 14.1948C90.5949 23.0754 94.4634 35.8581 94.4634 52.5429V132.67C94.4634 148.481 90.3931 160.59 82.2525 169C74.1119 177.41 62.5066 181.615 47.4364 181.615ZM47.4364 148.918C50.1948 148.918 52.3477 147.673 53.8951 145.184C55.4424 142.695 56.2161 139.903 56.2161 136.808V49.1118C56.2161 44.9406 55.7452 41.3076 54.8033 38.2128C53.9287 35.0508 51.4731 33.4698 47.4364 33.4698C43.3998 33.4698 40.9105 35.0508 39.9686 38.2128C39.094 41.3076 38.6567 44.9406 38.6567 49.1118V136.808C38.6567 139.903 39.4304 142.695 40.9778 145.184C42.5925 147.673 44.7453 148.918 47.4364 148.918ZM152.995 180.101V151.945H100.316V124.193L133.922 2.28668H189.224V122.276H198.71V151.945H189.224V180.101H152.995ZM132.004 122.276H152.995V32.7634L132.004 122.276Z" fill="white"/>
</svg>
