<svg width="24" height="24" viewBox="0 0 24 24" fill="none" xmlns="http://www.w3.org/2000/svg">
<g clip-path="url(#clip0_743_3041)">
<path d="M21.2125 8.11588C21.2125 7.72386 20.8946 7.40601 20.5026 7.40601H3.49735C3.10533 7.40601 2.78748 7.72382 2.78748 8.11588C2.78748 11.7346 4.88503 14.8721 7.92787 16.3779L6.63014 23.1564C6.55641 23.5415 6.80878 23.9134 7.19386 23.9871C7.23895 23.9958 7.28381 24 7.32811 24C7.66186 24 7.95942 23.7634 8.02453 23.4234L8.6339 20.2403H15.3657L15.9754 23.4235C16.0405 23.7634 16.338 24 16.6718 24C16.7161 24 16.761 23.9958 16.8061 23.9871C17.1912 23.9133 17.4435 23.5415 17.3697 23.1564L16.0713 16.3783C19.1146 14.8726 21.2125 11.7349 21.2125 8.11588ZM8.90573 18.8206L9.27046 16.9156C10.1333 17.1837 11.0501 17.3283 12 17.3283C12.9497 17.3283 13.8662 17.1838 14.7289 16.9158L15.0938 18.8206H8.90573ZM11.9999 15.9087C7.94222 15.9087 4.59886 12.7914 4.23924 8.82575H19.7606C19.401 12.7914 16.0577 15.9087 11.9999 15.9087Z" fill="white"/>
<path d="M9.2749 3.66557C9.4414 3.49438 9.84387 3.02493 9.9859 2.36455C10.1032 1.81916 10.0732 1.00157 9.26431 0.204323C8.98516 -0.07088 8.53573 -0.0676925 8.26048 0.211541C7.98528 0.490681 7.98851 0.940165 8.2677 1.21537C8.6472 1.58948 8.63792 1.88001 8.59793 2.0661C8.52982 2.38288 8.3021 2.62954 8.25715 2.67576C8.09065 2.84694 7.68818 3.31639 7.54615 3.97677C7.42882 4.52216 7.45882 5.33975 8.26774 6.137C8.40602 6.27331 8.58607 6.34128 8.76602 6.34128C8.9494 6.34128 9.13268 6.27069 9.27157 6.12973C9.54677 5.85059 9.54354 5.40111 9.26435 5.12591C8.88485 4.7518 8.89413 4.46127 8.93412 4.27517C9.00223 3.95849 9.22995 3.71183 9.2749 3.66557Z" fill="white"/>
<path d="M12.5089 3.66557C12.6754 3.49438 13.0779 3.02493 13.2199 2.36455C13.3372 1.81916 13.3072 1.00157 12.4983 0.204323C12.2192 -0.07088 11.7697 -0.0676925 11.4945 0.211541C11.2193 0.490681 11.2225 0.940165 11.5017 1.21537C11.8812 1.58948 11.8719 1.88001 11.8319 2.0661C11.7638 2.38288 11.5361 2.62954 11.4912 2.67576C11.3247 2.84694 10.9222 3.31639 10.7802 3.97677C10.6628 4.52216 10.6928 5.33975 11.5018 6.137C11.64 6.27331 11.82 6.34128 12 6.34128C12.1834 6.34128 12.3667 6.27069 12.5056 6.12973C12.7808 5.85059 12.7775 5.40111 12.4984 5.12591C12.1189 4.7518 12.1281 4.46127 12.1681 4.27517C12.2362 3.95849 12.464 3.71183 12.5089 3.66557Z" fill="white"/>
<path d="M15.7428 3.66557C15.9093 3.49438 16.3118 3.02493 16.4538 2.36455C16.5711 1.81916 16.5411 1.00157 15.7322 0.204323C15.4531 -0.07088 15.0036 -0.0676925 14.7284 0.211541C14.4532 0.490681 14.4564 0.940165 14.7356 1.21537C15.1151 1.58948 15.1058 1.88001 15.0658 2.0661C14.9977 2.38288 14.77 2.62954 14.725 2.67576C14.5585 2.84694 14.1561 3.31639 14.014 3.97677C13.8967 4.52216 13.9267 5.33975 14.7356 6.137C14.8739 6.27331 15.0539 6.34128 15.2339 6.34128C15.4173 6.34128 15.6006 6.27069 15.7395 6.12973C16.0147 5.85059 16.0114 5.40111 15.7322 5.12591C15.3527 4.7518 15.362 4.46127 15.402 4.27517C15.4701 3.95849 15.6978 3.71183 15.7428 3.66557Z" fill="white"/>
</g>
<defs>
<clipPath id="clip0_743_3041">
<rect width="24" height="24" fill="white"/>
</clipPath>
</defs>
</svg>
