<svg width="101" height="101" viewBox="0 0 101 101" fill="none" xmlns="http://www.w3.org/2000/svg">
<path d="M86.5743 10.665L86.5744 10.6651C94.8833 15.4605 100 24.3252 100 33.9192V59.0701H99.9942V60.0701C99.9942 69.6641 94.8775 78.5288 86.5686 83.3242L86.5685 83.3243L63.9229 96.3983C55.6167 101.194 45.3805 101.194 37.0714 96.3983C37.0713 96.3983 37.0713 96.3983 37.0712 96.3983L14.4257 83.3243L14.4256 83.3242C6.11674 78.5288 1 69.6641 1 60.0701V33.9192C1 24.3253 6.1167 15.4606 14.4284 10.6652L14.4286 10.665C36.7504 -2.22168 64.2525 -2.22168 86.5743 10.665Z" stroke="white" stroke-width="2"/>
<g clip-path="url(#clip0_403_2568)">
<path d="M51 30C39.9722 30 31 38.9722 31 50C31 61.0278 39.9722 70 51 70C62.0278 70 71 61.0278 71 50C71 38.9722 62.0278 30 51 30ZM51 67.5C41.3503 67.5 33.5 59.6497 33.5 50C33.5 40.3503 41.3503 32.5 51 32.5C60.6497 32.5 68.5 40.3503 68.5 50C68.5 59.6497 60.6497 67.5 51 67.5Z" fill="white"/>
<path d="M52.25 37.5H49.75V50.5175L57.6162 58.3837L59.3838 56.6162L52.25 49.4824V37.5Z" fill="white"/>
</g>
<defs>
<clipPath id="clip0_403_2568">
<rect width="40" height="40" fill="white" transform="translate(31 30)"/>
</clipPath>
</defs>
</svg>
