<svg width="101" height="101" viewBox="0 0 101 101" fill="none" xmlns="http://www.w3.org/2000/svg">
<path d="M86.5743 10.665L86.5744 10.6651C94.8833 15.4605 100 24.3252 100 33.9192V59.0701H99.9942V60.0701C99.9942 69.6641 94.8775 78.5288 86.5686 83.3242L86.5685 83.3243L63.9229 96.3983C55.6167 101.194 45.3805 101.194 37.0714 96.3983C37.0713 96.3983 37.0713 96.3983 37.0712 96.3983L14.4257 83.3243L14.4256 83.3242C6.11674 78.5288 1 69.6641 1 60.0701V33.9192C1 24.3253 6.1167 15.4606 14.4284 10.6652L14.4286 10.665C36.7504 -2.22168 64.2525 -2.22168 86.5743 10.665Z" stroke="white" stroke-width="2"/>
<path d="M65.1388 35H36.8612C35.6387 35.0013 34.4666 35.4876 33.6021 36.3521C32.7376 37.2166 32.2513 38.3887 32.25 39.6112V60.3888C32.2513 61.6113 32.7376 62.7834 33.6021 63.6479C34.4666 64.5124 35.6387 64.9987 36.8612 65H65.1388C66.3613 64.9987 67.5334 64.5124 68.3979 63.6479C69.2624 62.7834 69.7487 61.6113 69.75 60.3888V39.6112C69.7487 38.3887 69.2624 37.2166 68.3979 36.3521C67.5334 35.4876 66.3613 35.0013 65.1388 35ZM36.8612 37.5H65.1388C65.6985 37.5007 66.2351 37.7233 66.6309 38.1191C67.0267 38.5149 67.2493 39.0515 67.25 39.6112V40.5675L51 51.0138L34.75 40.5675V39.6112C34.7507 39.0515 34.9733 38.5149 35.3691 38.1191C35.7649 37.7233 36.3015 37.5007 36.8612 37.5ZM65.1388 62.5H36.8612C36.3015 62.4993 35.7649 62.2767 35.3691 61.8809C34.9733 61.4851 34.7507 60.9485 34.75 60.3888V43.54L50.3237 53.5513C50.5254 53.681 50.7602 53.75 51 53.75C51.2398 53.75 51.4746 53.681 51.6763 53.5513L67.25 43.54V60.3888C67.2493 60.9485 67.0267 61.4851 66.6309 61.8809C66.2351 62.2767 65.6985 62.4993 65.1388 62.5Z" fill="white"/>
</svg>
