<svg width="101" height="101" viewBox="0 0 101 101" fill="none" xmlns="http://www.w3.org/2000/svg">
<path d="M86.5743 10.665L86.5744 10.6651C94.8833 15.4605 100 24.3252 100 33.9192V59.0701H99.9942V60.0701C99.9942 69.6641 94.8775 78.5288 86.5686 83.3242L86.5685 83.3243L63.9229 96.3983C55.6167 101.194 45.3805 101.194 37.0714 96.3983C37.0713 96.3983 37.0713 96.3983 37.0712 96.3983L14.4257 83.3243L14.4256 83.3242C6.11674 78.5288 1 69.6641 1 60.0701V33.9192C1 24.3253 6.1167 15.4606 14.4284 10.6652L14.4286 10.665C36.7504 -2.22168 64.2525 -2.22168 86.5743 10.665Z" stroke="white" stroke-width="2"/>
<g clip-path="url(#clip0_403_2567)">
<path d="M62.6128 54.7786C61.7939 53.9259 60.8062 53.4701 59.7593 53.4701C58.7209 53.4701 57.7247 53.9175 56.8721 54.7702L54.2043 57.4295C53.9848 57.3113 53.7653 57.2015 53.5543 57.0918C53.2503 56.9398 52.9633 56.7963 52.7185 56.6444C50.2196 55.0572 47.9486 52.9888 45.7705 50.3126C44.7152 48.9788 44.006 47.8559 43.4911 46.7162C44.1833 46.0831 44.8249 45.4246 45.4497 44.7914C45.6861 44.555 45.9224 44.3102 46.1588 44.0738C47.9317 42.3009 47.9317 40.0046 46.1588 38.2318L43.8541 35.927C43.5924 35.6653 43.3222 35.3952 43.0689 35.125C42.5624 34.6016 42.0305 34.0613 41.4818 33.5547C40.6629 32.7443 39.6836 32.3137 38.6536 32.3137C37.6237 32.3137 36.6275 32.7443 35.7833 33.5547C35.7748 33.5632 35.7748 33.5632 35.7664 33.5716L32.896 36.4673C31.8154 37.5479 31.1991 38.8649 31.064 40.393C30.8614 42.8581 31.5875 45.1544 32.1446 46.6571C33.5123 50.3464 35.5553 53.7655 38.603 57.4295C42.3007 61.8448 46.7498 65.3315 51.832 67.7882C53.7738 68.7084 56.3655 69.7974 59.2612 69.9831C59.4385 69.9916 59.6242 70 59.7931 70C61.7433 70 63.3811 69.2993 64.6643 67.9063C64.6727 67.8895 64.6896 67.881 64.6981 67.8641C65.1371 67.3323 65.6436 66.8511 66.1755 66.3361C66.5385 65.99 66.9099 65.6269 67.2729 65.247C68.1087 64.3775 68.5477 63.3644 68.5477 62.326C68.5477 61.2792 68.1003 60.2745 67.2476 59.4303L62.6128 54.7786ZM65.6351 63.6683C65.6267 63.6683 65.6267 63.6768 65.6351 63.6683C65.3059 64.0229 64.9682 64.3437 64.6052 64.6983C64.0564 65.2217 63.4993 65.7705 62.9758 66.3867C62.1232 67.2985 61.1185 67.7291 59.8015 67.7291C59.6749 67.7291 59.5398 67.7291 59.4132 67.7206C56.9058 67.5602 54.5758 66.5809 52.8282 65.7451C48.0499 63.4319 43.8541 60.1479 40.3674 55.9859C37.4886 52.5161 35.5638 49.308 34.289 45.8636C33.5039 43.7614 33.2168 42.1236 33.3434 40.5787C33.4279 39.591 33.8078 38.7721 34.5085 38.0714L37.3873 35.1925C37.801 34.8042 38.24 34.5931 38.6705 34.5931C39.2024 34.5931 39.6329 34.9139 39.9031 35.1841C39.9115 35.1925 39.92 35.201 39.9284 35.2094C40.4434 35.6906 40.9331 36.1887 41.448 36.7206C41.7097 36.9907 41.9799 37.2609 42.25 37.5395L44.5548 39.8442C45.4497 40.7391 45.4497 41.5665 44.5548 42.4613C44.31 42.7062 44.0736 42.951 43.8288 43.1874C43.1196 43.9134 42.4442 44.5888 41.7097 45.2473C41.6929 45.2642 41.676 45.2726 41.6675 45.2895C40.9415 46.0155 41.0766 46.7247 41.2285 47.2059C41.237 47.2312 41.2454 47.2565 41.2539 47.2819C41.8533 48.7339 42.6975 50.1016 43.9807 51.7309L43.9892 51.7394C46.3192 54.6098 48.7759 56.847 51.4859 58.5607C51.832 58.7802 52.1866 58.9575 52.5243 59.1264C52.8282 59.2783 53.1153 59.4219 53.3601 59.5738C53.3938 59.5907 53.4276 59.616 53.4614 59.6329C53.7484 59.7764 54.0186 59.844 54.2972 59.844C54.9979 59.844 55.4369 59.405 55.5804 59.2615L58.4677 56.3742C58.7547 56.0872 59.2106 55.741 59.7424 55.741C60.2659 55.741 60.6964 56.0703 60.9581 56.3573C60.9666 56.3658 60.9666 56.3658 60.975 56.3742L65.6267 61.0259C66.4963 61.887 66.4963 62.7734 65.6351 63.6683Z" fill="white"/>
<path d="M52.6178 39.5149C54.8297 39.8864 56.8389 40.9332 58.443 42.5373C60.047 44.1413 61.0854 46.1506 61.4653 48.3624C61.5582 48.9196 62.0394 49.308 62.5881 49.308C62.6557 49.308 62.7148 49.2995 62.7823 49.2911C63.407 49.1898 63.8207 48.5988 63.7194 47.9741C63.2635 45.2979 61.9972 42.8581 60.0639 40.9248C58.1306 38.9915 55.6908 37.7252 53.0146 37.2693C52.3899 37.168 51.8074 37.5817 51.6976 38.1979C51.5879 38.8142 51.9931 39.4136 52.6178 39.5149Z" fill="white"/>
<path d="M70.9552 47.6448C70.2038 43.238 68.127 39.2279 64.9358 36.0367C61.7447 32.8455 57.7346 30.7687 53.3277 30.0174C52.7114 29.9076 52.1289 30.3297 52.0192 30.946C51.9178 31.5708 52.3315 32.1533 52.9562 32.263C56.8903 32.93 60.4783 34.7957 63.3318 37.6407C66.1853 40.4942 68.0426 44.0822 68.7095 48.0163C68.8024 48.5735 69.2836 48.9618 69.8324 48.9618C69.8999 48.9618 69.959 48.9534 70.0265 48.945C70.6428 48.8521 71.0649 48.2611 70.9552 47.6448Z" fill="white"/>
</g>
<defs>
<clipPath id="clip0_403_2567">
<rect width="40" height="40" fill="white" transform="translate(31 30)"/>
</clipPath>
</defs>
</svg>
