<svg width="205" height="182" viewBox="0 0 205 182" fill="none" xmlns="http://www.w3.org/2000/svg">
<path d="M68.2894 181.615C53.2866 181.615 41.6812 177.41 33.4734 169C25.3328 160.59 21.2625 148.481 21.2625 132.67V52.5429C21.2625 35.8581 25.131 23.0754 32.8679 14.1948C40.672 5.24688 52.4792 0.772936 68.2894 0.772936C84.1669 0.772936 95.9741 5.24688 103.711 14.1948C111.448 23.0754 115.316 35.8581 115.316 52.5429V132.67C115.316 148.481 111.246 160.59 103.105 169C94.9649 177.41 83.3596 181.615 68.2894 181.615ZM68.2894 148.918C71.0478 148.918 73.2007 147.673 74.7481 145.184C76.2954 142.695 77.0691 139.903 77.0691 136.808V49.1118C77.0691 44.9406 76.5982 41.3076 75.6563 38.2128C74.7817 35.0508 72.3261 33.4698 68.2894 33.4698C64.2528 33.4698 61.7635 35.0508 60.8216 38.2128C59.947 41.3076 59.5097 44.9406 59.5097 49.1118V136.808C59.5097 139.903 60.2834 142.695 61.8308 145.184C63.4455 147.673 65.5983 148.918 68.2894 148.918ZM143.876 180V43.1577C141.454 46.0506 138.123 48.4054 133.885 50.2218C129.646 51.9711 125.643 52.8457 121.876 52.8457V24.4882C125.442 23.95 129.276 22.8063 133.38 21.0571C137.484 19.2406 141.285 16.785 144.784 13.6902C148.35 10.5282 151.074 6.72699 152.958 2.28668H181.517V180H143.876Z" fill="white"/>
</svg>
