<svg width="101" height="101" viewBox="0 0 101 101" fill="none" xmlns="http://www.w3.org/2000/svg">
<path d="M86.5743 10.665L86.5744 10.6651C94.8833 15.4605 100 24.3252 100 33.9192V59.0701H99.9942V60.0701C99.9942 69.6641 94.8775 78.5288 86.5686 83.3242L86.5685 83.3243L63.9229 96.3983C55.6167 101.194 45.3805 101.194 37.0714 96.3983C37.0713 96.3983 37.0713 96.3983 37.0712 96.3983L14.4257 83.3243L14.4256 83.3242C6.11674 78.5288 1 69.6641 1 60.0701V33.9192C1 24.3253 6.1167 15.4606 14.4284 10.6652L14.4286 10.665C36.7504 -2.22168 64.2525 -2.22168 86.5743 10.665Z" stroke="white" stroke-width="2"/>
<path d="M61.8456 56.9058C59.9291 56.9058 58.2024 57.7334 57.004 59.0499L46.2249 52.3739C46.5127 51.6372 46.6723 50.8371 46.6723 50C46.6723 49.1626 46.5127 48.3624 46.2249 47.626L57.004 40.9497C58.2024 42.2662 59.9291 43.0941 61.8456 43.0941C65.4558 43.0941 68.3928 40.1571 68.3928 36.5469C68.3928 32.9367 65.4558 30 61.8456 30C58.2354 30 55.2984 32.937 55.2984 36.5472C55.2984 37.3843 55.4583 38.1845 55.7457 38.9212L44.967 45.5972C43.7685 44.2807 42.0419 43.4527 40.1254 43.4527C36.5151 43.4527 33.5781 46.39 33.5781 50C33.5781 53.6102 36.5151 56.5472 40.1254 56.5472C42.0419 56.5472 43.7685 55.7196 44.967 54.4027L55.7457 61.0787C55.4583 61.8154 55.2984 62.6156 55.2984 63.453C55.2984 67.0629 58.2354 69.9999 61.8456 69.9999C65.4558 69.9999 68.3928 67.0629 68.3928 63.453C68.3928 59.8428 65.4558 56.9058 61.8456 56.9058ZM57.6857 36.5472C57.6857 34.2535 59.5519 32.3874 61.8456 32.3874C64.1393 32.3874 66.0054 34.2535 66.0054 36.5472C66.0054 38.8409 64.1393 40.7071 61.8456 40.7071C59.5519 40.7071 57.6857 38.8409 57.6857 36.5472ZM40.1254 54.1598C37.8314 54.1598 35.9652 52.2937 35.9652 50C35.9652 47.7063 37.8314 45.8401 40.1254 45.8401C42.419 45.8401 44.2849 47.7063 44.2849 50C44.2849 52.2937 42.419 54.1598 40.1254 54.1598ZM57.6857 63.4527C57.6857 61.159 59.5519 59.2928 61.8456 59.2928C64.1393 59.2928 66.0054 61.159 66.0054 63.4527C66.0054 65.7464 64.1393 67.6125 61.8456 67.6125C59.5519 67.6125 57.6857 65.7464 57.6857 63.4527Z" fill="white"/>
</svg>
