<svg width="101" height="101" viewBox="0 0 101 101" fill="none" xmlns="http://www.w3.org/2000/svg">
<g clip-path="url(#clip0_403_2370)">
<path d="M101 60.0716V33.9206C101 23.9696 95.6927 14.7746 87.0743 9.80047C64.4431 -3.26487 36.5598 -3.26487 13.9286 9.80047C5.30725 14.7746 0 23.9696 0 33.9206V60.0716C0 70.0227 5.30725 79.2177 13.9257 84.1918L36.5714 97.2658C45.1898 102.24 55.8073 102.24 64.4228 97.2658L87.0685 84.1918C95.687 79.2177 100.994 70.0227 100.994 60.0716H101Z" fill="white"/>
<path d="M50.4999 98.9605C46.0356 98.9605 41.5714 97.8104 37.5881 95.5131L14.9424 82.4391C6.97867 77.8416 2.03064 69.2694 2.03064 60.0744V33.9206C2.03064 24.7227 6.97867 16.1535 14.9424 11.556C25.7366 5.32169 38.0313 2.02783 50.4999 2.02783C62.9684 2.02783 75.2632 5.32169 86.0602 11.556C94.024 16.1535 98.972 24.7227 98.972 33.9206V60.0715C98.972 69.2694 94.024 77.8387 86.0602 82.4362L63.4146 95.5102C59.4312 97.8104 54.967 98.9576 50.5028 98.9576L50.4999 98.9605ZM50.4999 3.18662C38.237 3.18662 26.1421 6.42833 15.5189 12.5583C7.91149 16.9501 3.18653 25.137 3.18653 33.9206V60.0715C3.18653 68.8552 7.91149 77.042 15.5189 81.4338L38.1646 94.5078C45.772 98.8997 55.2219 98.8997 62.8294 94.5078L85.475 81.4338C93.0824 77.042 97.8074 68.8552 97.8074 60.0715V33.9206C97.8074 25.137 93.0824 16.9501 85.475 12.5583C74.8547 6.42543 62.7598 3.18662 50.4941 3.18662H50.4999Z" fill="#341716"/>
<path d="M10.5393 27.8312C11.4304 27.8312 12.1529 27.1088 12.1529 26.2176C12.1529 25.3264 11.4304 24.604 10.5393 24.604C9.6481 24.604 8.92566 25.3264 8.92566 26.2176C8.92566 27.1088 9.6481 27.8312 10.5393 27.8312Z" fill="#351817"/>
<path d="M92.0746 26.2176C92.0746 27.1099 91.3504 27.8312 90.461 27.8312C89.5717 27.8312 88.8474 27.107 88.8474 26.2176C88.8474 25.3282 89.5717 24.604 90.461 24.604C91.3504 24.604 92.0746 25.3282 92.0746 26.2176Z" fill="#351817"/>
<path d="M28.0397 14.9598L28.173 15.374C28.5554 16.5647 28.4308 17.428 27.7413 18.0682L27.7529 18.1001C28.8509 18.1667 29.5085 18.9054 29.9025 20.1309L30.2038 21.0753C30.7774 22.8627 30.1429 24.1258 28.3207 24.7081L25.4585 25.6264L21.7417 14.0414L24.488 13.1608C26.374 12.5553 27.4661 13.1723 28.0397 14.9598ZM24.0911 15.1133L25.0732 18.1754L25.7859 17.9466C26.4638 17.7293 26.7824 17.2976 26.484 16.3706L26.2784 15.7246C26.0118 14.896 25.6149 14.6237 24.9689 14.8294L24.0911 15.1104V15.1133ZM25.6034 19.8296L26.7448 23.3871L27.7877 23.0539C28.3989 22.8569 28.6394 22.4687 28.3642 21.6083L28.0397 20.6002C27.695 19.5254 27.2401 19.3052 26.4145 19.5689L25.6034 19.8296Z" fill="#341718"/>
<path d="M34.5925 15.8174L37.1679 15.3162L37.5011 17.0225L34.9256 17.5237L35.6064 21.0203L38.8481 20.3888L39.1784 22.0951L34.0595 23.0916L31.7361 11.1474L36.855 10.1509L37.1882 11.8572L33.9465 12.4887L34.5954 15.8174H34.5925Z" fill="#341718"/>
<path d="M44.6047 14.7047L47.2728 14.5019L47.5654 18.3491C47.7131 20.2901 46.8266 21.472 44.9552 21.6169C43.0838 21.7588 42.0293 20.7246 41.8815 18.7836L41.4006 12.474C41.2529 10.5331 42.1393 9.3511 44.0108 9.20625C45.8822 9.0614 46.9367 10.0985 47.0845 12.0395L47.1743 13.2186L45.3724 13.3547L45.2739 12.054C45.2072 11.1878 44.8017 10.8865 44.1962 10.9328C43.5907 10.9792 43.2344 11.3384 43.2981 12.2046L43.7964 18.7576C43.863 19.6238 44.2657 19.9077 44.8741 19.8613C45.4795 19.815 45.8388 19.4731 45.7721 18.6069L45.6012 16.3705L44.735 16.4371L44.6018 14.7047H44.6047Z" fill="#341718"/>
<path d="M54.9237 21.391C54.8339 21.0753 54.773 20.8812 54.8165 19.8904L54.9005 17.9813C54.9497 16.8515 54.5876 16.4198 53.7185 16.3822L53.058 16.3532L52.8407 21.3012L50.9316 21.2172L51.4676 9.06152L54.3501 9.18899C56.3287 9.2759 57.1398 10.2348 57.0558 12.1091L57.0153 13.0651C56.9602 14.3166 56.5257 15.0959 55.6566 15.458V15.4928C56.5923 15.9331 56.8646 16.8515 56.8096 18.1175L56.7256 19.9918C56.6995 20.5828 56.6966 21.0173 56.8704 21.4779L54.9266 21.391H54.9237ZM53.2985 10.8808L53.1333 14.615L53.8808 14.6469C54.5934 14.6788 55.0395 14.3862 55.083 13.4128L55.1351 12.2134C55.1728 11.3443 54.8947 10.9503 54.2168 10.9214L53.2956 10.8808H53.2985Z" fill="#341718"/>
<path d="M61.5692 9.81494L63.4638 10.0844L61.7517 22.13L59.86 21.8605L61.5721 9.81494H61.5692Z" fill="#341718"/>
<path d="M67.8818 10.8574L69.7417 11.2949L67.3487 21.4459L70.4109 22.1672L70.0111 23.859L65.0891 22.7002L67.8789 10.8574H67.8818Z" fill="#341718"/>
<path d="M76.7146 13.1953L78.5165 13.8297L75.0517 23.6679L78.0182 24.7137L77.4417 26.3534L72.6704 24.6731L76.7117 13.1953H76.7146Z" fill="#341718"/>
<path d="M42.6898 26.5017C43.4285 26.3394 43.8833 26.6581 44.005 27.3244L44.0282 27.4548C43.7964 27.4982 43.5647 27.5446 43.3358 27.5909C43.3242 27.533 43.3126 27.4751 43.3011 27.4171C43.2402 27.1187 43.0809 27.0347 42.8433 27.0869C42.6058 27.139 42.4986 27.2839 42.5652 27.5793C42.6348 27.8835 42.8375 28.0689 43.3851 28.3441C44.0861 28.7005 44.3295 29.0191 44.4193 29.4971C44.541 30.1692 44.2744 30.6096 43.6255 30.7515C42.9795 30.8964 42.5478 30.6096 42.374 29.9491C42.3537 29.8651 42.3306 29.781 42.3103 29.697C42.5276 29.642 42.7448 29.5869 42.9621 29.5377C42.9853 29.6362 43.0085 29.7347 43.0316 29.8332C43.1012 30.1287 43.2605 30.204 43.4749 30.1547C43.6893 30.1084 43.8022 29.9722 43.7414 29.6739C43.6777 29.3726 43.4952 29.1698 42.9476 28.9004C42.2466 28.5585 41.9656 28.2717 41.8439 27.7966C41.673 27.139 41.9511 26.6581 42.6898 26.493V26.5017Z" fill="#341718"/>
<path d="M45.1493 26.0986C45.9373 25.9827 46.7252 25.8929 47.519 25.832C47.5335 26.0348 47.5509 26.2376 47.5654 26.4375C47.3017 26.4578 47.0381 26.481 46.7774 26.507C46.8991 27.718 47.0207 28.9289 47.1453 30.1369C46.9222 30.1601 46.6963 30.1833 46.4732 30.2123C46.3255 29.0042 46.1748 27.7962 46.0271 26.591C45.7663 26.6229 45.5027 26.6577 45.242 26.6982C45.213 26.4983 45.1841 26.2984 45.1522 26.0957L45.1493 26.0986Z" fill="#341718"/>
<path d="M48.9473 26.7738C48.9183 26.093 49.3181 25.6845 50.0771 25.6787C50.8361 25.6787 51.2388 26.0843 51.2156 26.7651C51.1924 27.5038 51.1721 28.2396 51.149 28.9784C51.1258 29.6591 50.7521 30.0329 50.0916 30.0358C49.4311 30.0387 49.0574 29.6678 49.0284 28.9871C49.0023 28.2483 48.9733 27.5125 48.9473 26.7738ZM49.7295 29.0102C49.7352 29.3144 49.8743 29.4274 50.0916 29.4274C50.3117 29.4274 50.4479 29.3115 50.4508 29.0073C50.4566 28.2396 50.4624 27.4748 50.4682 26.7071C50.4711 26.403 50.3204 26.2871 50.08 26.2871C49.8395 26.2871 49.6889 26.4058 49.6947 26.71C49.7063 27.4777 49.7179 28.2425 49.7295 29.0102Z" fill="#341718"/>
<path d="M53.9416 30.218C53.9184 30.1051 53.9011 30.0355 53.9416 29.6908C53.9677 29.4706 53.9967 29.2476 54.0227 29.0274C54.072 28.6363 53.9474 28.4712 53.623 28.4364C53.5418 28.4277 53.4578 28.419 53.3767 28.4103C53.3188 28.9839 53.2637 29.5604 53.2058 30.134C52.9827 30.1109 52.7568 30.0906 52.5337 30.0761C52.6438 28.6624 52.751 27.2458 52.8611 25.832C53.2463 25.861 53.6345 25.8987 54.0198 25.9421C54.8165 26.0319 55.1091 26.4085 55.0135 27.0546C54.999 27.1646 54.9816 27.2747 54.9671 27.3848C54.9034 27.8194 54.7122 28.0714 54.3762 28.1699V28.1815C54.7151 28.3669 54.7846 28.6971 54.7209 29.1375C54.689 29.3547 54.6572 29.572 54.6282 29.7864C54.5992 29.9921 54.5819 30.1427 54.6282 30.3079C54.3993 30.2731 54.1734 30.2441 53.9445 30.2151L53.9416 30.218ZM53.5679 26.5041C53.5245 26.9387 53.481 27.3703 53.4375 27.8049C53.5331 27.8136 53.6259 27.8251 53.7215 27.8338C53.9909 27.8628 54.1676 27.7759 54.211 27.437C54.2284 27.2979 54.2458 27.1588 54.2603 27.0198C54.2979 26.7185 54.1966 26.5708 53.93 26.5418C53.8084 26.5273 53.6896 26.5157 53.5679 26.5041Z" fill="#341718"/>
<path d="M57.1486 28.2656C57.4759 28.3351 57.8033 28.4133 58.1306 28.4944C58.0814 28.6914 58.0321 28.8884 57.9829 29.0854C57.6613 29.0072 57.3398 28.9319 57.0182 28.8624C56.9313 29.2679 56.8415 29.6735 56.7546 30.082C57.1457 30.166 57.5339 30.2587 57.9192 30.3572C57.8699 30.5542 57.8178 30.7512 57.7685 30.9453C57.1689 30.7917 56.5663 30.6556 55.9608 30.5397C56.2302 29.1463 56.4968 27.7528 56.7662 26.3594C57.4557 26.4926 58.1451 26.6462 58.8259 26.8229C58.7767 27.0199 58.7245 27.2169 58.6753 27.411C58.2494 27.3009 57.8236 27.2024 57.3948 27.1097C57.3108 27.495 57.2268 27.8832 57.1457 28.2685L57.1486 28.2656Z" fill="#341718"/>
<g clip-path="url(#clip1_403_2370)">
<path d="M40.3912 59.2141L27.1593 42.9944C27.1593 42.9944 35.1818 50.3494 38.7267 54.079C39.1316 54.5039 39.5035 54.8486 39.8484 55.1309L40.4692 55.7461C41.3449 56.6109 42.5236 56.3761 43.3963 55.5113C44.269 54.6466 44.506 53.4757 43.6332 52.6109L43.0094 51.9928C42.7275 51.651 42.3796 51.2855 41.9508 50.8843C38.1899 47.3718 30.7672 39.4224 30.7672 39.4224L47.1362 52.5307C47.1362 52.5307 48.6927 53.4876 46.4044 55.4192C45.2857 56.3612 45.0698 56.908 44.9108 57.0061C44.8119 57.1636 44.26 57.3806 43.3093 58.489C41.3599 60.7564 40.3942 59.2141 40.3942 59.2141H40.3912Z" fill="#341718"/>
<path d="M44.066 54.8573L62.9463 73.5654L61.6166 74.883L42.7363 56.1748L44.066 54.8573Z" fill="#341718"/>
<path d="M55.8875 67.889C56.8682 66.9172 58.4577 66.9172 59.4384 67.889L67.0141 75.3956C67.9948 76.3673 67.9948 77.9423 67.0141 78.9141C66.0334 79.8859 64.4439 79.8859 63.4632 78.9141L55.8875 71.4075C54.9068 70.4358 54.9068 68.8607 55.8875 67.889ZM66.3723 78.2782C66.7382 77.9126 66.7382 77.3242 66.3723 76.9617C66.0064 76.5962 65.4096 76.5962 65.0407 76.9617C64.6748 77.3242 64.6748 77.9156 65.0407 78.2782C65.4096 78.6407 66.0034 78.6407 66.3723 78.2782Z" fill="#341718"/>
<path d="M56.3876 54.2275L57.6704 55.499L37.7963 75.1851L36.5135 73.9136L56.3876 54.2275Z" fill="#341718"/>
<path d="M55.5488 47.3803C55.5878 47.3179 55.6358 47.2584 55.6988 47.196L63.4634 39.5022C64.1832 38.789 65.4818 38.9197 66.3635 39.7964L72.2327 45.6091C73.1144 46.4828 73.2464 47.7725 72.5296 48.4828L64.765 56.1766C64.702 56.239 64.639 56.2866 64.579 56.3252L64.597 56.343C64.597 56.343 64.57 56.349 64.522 56.3579C64.3931 56.4262 64.2701 56.447 64.1472 56.4292C62.7316 56.6848 58.3439 57.291 56.4575 55.4218C54.5711 53.5526 55.1829 49.2079 55.4408 47.8023C55.4228 47.6804 55.4438 47.5556 55.5158 47.4308C55.5248 47.3832 55.5308 47.3565 55.5308 47.3565L55.5488 47.3743V47.3803ZM62.4527 53.4931C62.1888 53.7546 62.1888 54.1796 62.4527 54.4441C62.7166 54.7056 63.1455 54.7056 63.4124 54.4441L69.9294 47.9835C70.1933 47.722 70.1933 47.2971 69.9294 47.0326C69.6655 46.7711 69.2366 46.7711 68.9697 47.0326L62.4527 53.4902V53.4931ZM59.9514 51.0147C59.6875 51.2762 59.6875 51.7012 59.9514 51.9657C60.2154 52.2272 60.6442 52.2272 60.9082 51.9657L67.4282 45.5051C67.6921 45.2436 67.6921 44.8186 67.4282 44.5542C67.1642 44.2926 66.7354 44.2926 66.4714 44.5542L59.9544 51.0117L59.9514 51.0147ZM57.4502 48.5363C57.1863 48.7978 57.1863 49.2227 57.4502 49.4872C57.7141 49.7487 58.143 49.7487 58.4099 49.4872L64.9239 43.0267C65.1878 42.7652 65.1878 42.3402 64.9239 42.0757C64.66 41.8142 64.2281 41.8142 63.9642 42.0757L57.4472 48.5333L57.4502 48.5363Z" fill="#341718"/>
<path d="M43.3216 68.4416C44.2663 69.3807 44.2663 70.8992 43.3216 71.8353L36.0129 79.0774C35.0652 80.0135 33.5326 80.0165 32.5879 79.0774C31.6432 78.1413 31.6432 76.6198 32.5879 75.6837L39.8967 68.4416C40.8444 67.5025 42.3769 67.5025 43.3216 68.4416ZM33.2057 78.4653C33.5596 78.8159 34.1354 78.8159 34.4893 78.4653C34.8432 78.1146 34.8432 77.544 34.4893 77.1934C34.1354 76.8427 33.5596 76.8427 33.2057 77.1934C32.8518 77.544 32.8518 78.1146 33.2057 78.4653Z" fill="#341718"/>
</g>
</g>
<defs>
<clipPath id="clip0_403_2370">
<rect width="101" height="101" fill="white"/>
</clipPath>
<clipPath id="clip1_403_2370">
<rect width="45.8319" height="40.7395" fill="white" transform="matrix(-1 0 0 1 72.9916 39.042)"/>
</clipPath>
</defs>
</svg>
