<svg width="25" height="25" viewBox="0 0 25 25" fill="none" xmlns="http://www.w3.org/2000/svg">
<path d="M12.5 2C7.55 2 3.5 6.05 3.5 11V16.25C3.5 17.525 4.475 18.5 5.75 18.5H8.75C9.2 18.5 9.5 18.2 9.5 17.75V11.75C9.5 11.3 9.2 11 8.75 11H5C5 6.875 8.375 3.5 12.5 3.5C16.625 3.5 20 6.875 20 11H16.25C15.8 11 15.5 11.3 15.5 11.75V17.75C15.5 18.2 15.8 18.5 16.25 18.5H19.25C19.475 18.5 19.775 18.425 20 18.35V19.25C20 20.525 19.025 21.5 17.75 21.5H12.5C12.05 21.5 11.75 21.8 11.75 22.25C11.75 22.7 12.05 23 12.5 23H17.75C19.85 23 21.5 21.35 21.5 19.25V11C21.5 6.05 17.45 2 12.5 2ZM8 12.5V17H5.75C5.3 17 5 16.7 5 16.25V12.5H8ZM19.25 17H17V12.5H20V16.25C20 16.7 19.7 17 19.25 17Z" fill="white"/>
</svg>
