<svg width="81" height="83" viewBox="0 0 81 83" fill="none" xmlns="http://www.w3.org/2000/svg">
<path d="M80.4017 50.1321V29.3458C80.4017 21.436 76.1832 14.1273 69.3327 10.1736C51.3441 -0.211513 29.1807 -0.211513 11.1922 10.1736C4.33937 14.1273 0.12085 21.436 0.12085 29.3458V50.1321C0.12085 58.0418 4.33937 65.3506 11.1899 69.3043L29.19 79.6963C36.0404 83.65 44.4798 83.65 51.328 79.6963L69.3281 69.3043C76.1786 65.3506 80.3971 58.0418 80.3971 50.1321H80.4017Z" fill="#EC4E20"/>
<path d="M24.2581 32.5571C24.2581 31.9366 25.9257 31.3743 29.2608 30.8702C32.596 30.366 36.1638 30.017 39.9643 29.8231C43.1443 26.9533 46.0141 24.5101 48.5736 22.4935L49.8534 21.4465C50.4351 21.4465 50.7259 21.873 50.7259 22.7262L50.8423 25.5766C50.7259 26.0032 49.9115 27.3411 48.3991 29.5904H51.2495C55.5541 29.5904 58.0361 30.017 58.6953 30.8702C59.3934 31.6845 59.7424 32.3438 59.7424 32.848C59.7424 33.5072 59.0831 33.8563 57.7646 33.895C56.4461 33.9338 52.3159 33.9532 45.3742 33.9532C39.8286 39.654 35.4851 44.7148 32.3439 49.1358C31.1417 50.7646 30.0946 52.2189 29.2027 53.4986C28.3107 54.7784 27.6127 55.6704 27.1085 56.1745C26.6431 56.7174 26.1972 56.9889 25.7706 56.9889C24.4908 56.9889 23.405 56.5623 22.513 55.7091C21.6211 54.856 21.1751 53.8089 21.1751 52.5679C21.1751 49.1552 25.9257 42.9697 35.427 34.0114H26.4686C24.995 34.0114 24.2581 33.5266 24.2581 32.5571ZM54.3107 42.2135C54.3107 43.2606 54.9312 43.7841 56.1722 43.7841C57.3356 43.7841 58.6154 43.4932 60.0115 42.9115C61.4076 42.3298 62.1638 42.039 62.2801 42.039C62.3965 42.039 62.5128 42.1359 62.6291 42.3298C62.7843 42.5237 62.8618 42.7176 62.8618 42.9115C62.8618 43.3381 61.9505 43.9004 60.1278 44.5985C58.3439 45.2578 57.0447 45.5874 56.2303 45.5874C55.4159 45.5874 54.8342 45.5874 54.4852 45.5874C54.175 45.5486 53.9229 45.7425 53.729 46.1691C50.8592 51.5596 48.0088 54.9529 45.1779 56.349C43.9369 56.9695 42.6183 57.2798 41.2222 57.2798C39.8649 57.2798 38.7403 56.8338 37.8483 55.9418C36.9951 55.0111 36.5686 53.5568 36.5686 51.579C36.5686 48.8256 37.4605 46.2661 39.2444 43.9004C41.0671 41.496 43.1225 39.6927 45.4105 38.4905C47.6986 37.2883 49.7734 36.6872 51.6348 36.6872C54.7761 37.0363 56.3467 37.9864 56.3467 39.5376C56.3467 39.9642 56.2303 40.352 55.9977 40.701C55.8038 41.0113 55.6292 41.2052 55.4741 41.2828C55.3578 41.3215 55.2027 41.3603 55.0088 41.3991C54.5434 41.5154 54.3107 41.7869 54.3107 42.2135ZM49.5407 44.8893C48.2997 45.8201 47.0781 47.0029 45.8759 48.4378C44.7125 49.8727 44.1308 51.0555 44.1308 51.9862C44.1308 52.8782 44.3829 53.3241 44.887 53.3241C45.6626 53.3241 47.0781 52.1413 49.1335 49.7757C51.2276 47.3713 52.2747 45.3935 52.2747 43.8423C52.2747 43.6096 52.1196 43.4932 51.8094 43.4932C51.5379 43.4932 50.7817 43.9586 49.5407 44.8893Z" fill="white"/>
</svg>
